<?xml version="1.0" encoding="UTF-8" standalone="no"?>
<svg width="113px" height="79px" viewBox="0 0 113 79" version="1.1" xmlns="http://www.w3.org/2000/svg" xmlns:xlink="http://www.w3.org/1999/xlink" xmlns:sketch="http://www.bohemiancoding.com/sketch/ns">
    <!-- Generator: Sketch 3.1 (8751) - http://www.bohemiancoding.com/sketch -->
    <title>bowlingjs logo</title>
    <desc>Created with Sketch by Alan Shaw (http://github.com/alanshaw), with &lt;3.</desc>
    <defs></defs>
    <g id="Page-1" stroke="none" stroke-width="1" fill="none" fill-rule="evenodd" sketch:type="MSPage">
        <g id="bowling-pins" sketch:type="MSLayerGroup" transform="translate(-10.000000, -10.000000)">
            <g id="g3" transform="translate(82.055640, 0.382120)" sketch:type="MSShapeGroup">
                <g id="g5">
                    <path d="M40.246,15.946 L6.821,50.903 L3.92,52.101 L0.449,48.72 L0.064,44.123 L27.175,0.459 L32.806,3.911 L39.388,1.354 L38.17,7.966 L42.951,13.311 L40.246,15.946 Z" id="polygon7" fill="#f3df49"></path>
                    <path d="M3.876,52.343 L0.25,48.815 L-0.147,44.073 L-0.11,44.015 L27.11,0.175 L32.824,3.682 L39.66,1.029 L38.394,7.905 L43.238,13.322 L40.391,16.092 L6.94,51.077 L3.876,52.343 L3.876,52.343 Z M0.646,48.628 L3.968,51.856 L6.699,50.729 L40.096,15.803 L42.662,13.304 L37.947,8.029 L39.116,1.682 L32.78,4.141 L27.242,0.744 L0.273,44.177 L0.646,48.628 L0.646,48.628 Z" id="path9" fill="#FFFFFF"></path>
                </g>
            </g>
            <path d="M81.89364,44.12512 L82.55064,48.51512 L104.54864,13.43412 L110.27564,8.43312 L108.65364,1.17112" id="polyline11" fill="#F6CC1E" sketch:type="MSShapeGroup"></path>
            <path d="M114.63164,20.71812 L111.80464,14.73612 L84.13364,50.10412 L85.29364,52.16712 L114.63164,20.71812 Z" id="polygon13" fill="#F6CC1E" sketch:type="MSShapeGroup"></path>
            <g id="g15" transform="translate(82.055640, 0.382120)" sketch:type="MSShapeGroup">
                <g id="g17" transform="translate(1.000000, 13.000000)" fill="#2e2e2c">
                    <g id="g19">
                        <path d="M0.313,36.946 L1.121,37.57 L29.268,1.009 L28.455,0.386 L0.313,36.946 Z" id="polygon21"></path>
                    </g>
                </g>
                <g id="g23" transform="translate(0.000000, 12.000000)" fill="#2e2e2c">
                    <g id="g25">
                        <path d="M0.024,36.628 L0.896,37.162 L23.115,0.885 L22.242,0.35 L0.024,36.628 Z" id="polygon27"></path>
                    </g>
                </g>
                <g id="g29" transform="translate(3.000000, 20.000000)" fill="#2e2e2c">
                    <g id="g31">
                        <path d="M0.238,31.785 L0.993,32.473 L30.074,0.526 L29.318,-0.162 L0.238,31.785 Z" id="polygon33"></path>
                    </g>
                </g>
                <g id="g35">
                    <g id="g37" transform="translate(1.000000, 1.000000)" fill="#E2001A">
                        <path d="M25.59799,-0.211 L-0.45801,42.573" id="line39"></path>
                    </g>
                    <g id="g41" fill="#2e2e2c">
                        <path d="M-0.162,43.743 L0.711,44.277 L27.301,0.619 L26.428,0.087 L-0.162,43.743 Z" id="polygon43"></path>
                    </g>
                </g>
                <g id="g45" transform="translate(0.000000, 13.000000)" fill="#2e2e2c">
                    <g id="g47">
                        <path d="M43.674,0.298 L42.935,-0.412 L42.582,-0.042 L6.527,37.473 L4.038,38.498 L0.953,35.498 L0.754,30.303 L-0.27,30.34 L-0.053,35.946 L3.807,39.7 L7.114,38.336 L7.188,38.258 L43.674,0.298 Z" id="polygon49"></path>
                    </g>
                </g>
                <g id="g51" transform="translate(22.000000, 0.000000)" fill="#2e2e2c">
                    <g id="g53">
                        <path d="M10.489,20.802 C10.541,20.82 10.597,20.833 10.654,20.834 C10.848,20.839 11.028,20.734 11.12,20.562 L14.358,14.441 L21.237,13.639 C21.429,13.617 21.592,13.486 21.66,13.303 C21.724,13.119 21.682,12.915 21.546,12.776 L16.726,7.803 L18.089,1.014 C18.127,0.823 18.052,0.628 17.898,0.508 C17.745,0.391 17.538,0.369 17.363,0.455 L11.144,3.503 L5.11,0.107 C4.936,0.01 4.729,0.021 4.568,0.13 C4.408,0.242 4.324,0.432 4.354,0.625 L4.354,0.625 L5.33,7.481 L0.235,12.171 C0.092,12.304 0.036,12.505 0.092,12.693 C0.145,12.879 0.304,13.019 0.493,13.051 L7.315,14.24 L10.204,20.534 C10.261,20.66 10.365,20.755 10.489,20.802 L10.489,20.802 L10.489,20.802 Z M20.089,12.742 L13.974,13.457 C13.807,13.475 13.66,13.577 13.58,13.726 L10.7,19.166 L8.134,13.571 C8.062,13.417 7.924,13.308 7.755,13.28 L1.688,12.221 L6.22,8.051 C6.343,7.936 6.404,7.769 6.378,7.603 L5.511,1.507 L10.875,4.525 C11.021,4.606 11.203,4.613 11.353,4.538 L16.882,1.829 L15.671,7.865 C15.636,8.032 15.688,8.2 15.805,8.322 L20.089,12.742 L20.089,12.742 Z" id="path55"></path>
                    </g>
                </g>
            </g>
            <g id="g57" transform="translate(88.055640, 26.382120)" sketch:type="MSShapeGroup">
                <g id="g59">
                    <path d="M38.84,15.15 L5.449,38.695 L2.853,39.215 L0.524,35.849 L0.95,31.977 L30.519,0.19 L34.624,3.965 L40.495,2.917 L38.413,8.2 L41.505,13.407 L38.84,15.15 Z" id="polygon61" fill="#f3df49"></path>
                    <path d="M2.772,39.408 L0.341,35.894 L0.782,31.9 L0.822,31.858 L30.51,-0.057 L34.676,3.778 L40.772,2.691 L38.606,8.183 L41.744,13.462 L38.932,15.295 L5.521,38.857 L2.772,39.408 L2.772,39.408 Z M0.703,35.805 L2.932,39.022 L5.377,38.532 L38.738,15.007 L41.268,13.353 L38.217,8.215 L40.219,3.143 L34.566,4.154 L30.527,0.436 L1.114,32.054 L0.703,35.805 L0.703,35.805 Z" id="path63" fill="#FFFFFF"></path>
                </g>
            </g>
            <path d="M88.88364,58.00712 L88.71164,61.75312 L112.64764,36.24912 L118.20564,33.03512 L118.04364,26.75312" id="polyline65" fill="#F6CC1E" sketch:type="MSShapeGroup"></path>
            <path d="M119.82264,43.92712 L118.44964,38.50712 L89.76764,63.32712 L90.39164,65.22612 L119.82264,43.92712 Z" id="polygon67" fill="#F6CC1E" sketch:type="MSShapeGroup"></path>
            <g id="g69" transform="translate(88.055640, 26.382120)" sketch:type="MSShapeGroup">
                <g id="g71" transform="translate(1.000000, 11.000000)" fill="#2e2e2c">
                    <g id="g73">
                        <path d="M0.038,26.007 L0.609,26.654 L29.881,0.925 L29.311,0.276 L0.038,26.007 Z" id="polygon75"></path>
                    </g>
                </g>
                <g id="g77" transform="translate(0.000000, 9.000000)" fill="#2e2e2c">
                    <g id="g79">
                        <path d="M0.186,26.704 L0.822,27.289 L25.135,0.828 L24.496,0.246 L0.186,26.704 Z" id="polygon81"></path>
                    </g>
                </g>
                <g id="g83" transform="translate(2.000000, 17.000000)" fill="#2e2e2c">
                    <g id="g85">
                        <path d="M0.336,21.844 L0.854,22.535 L30.147,0.782 L29.634,0.088 L0.336,21.844 Z" id="polygon87"></path>
                    </g>
                </g>
                <g id="g89" transform="translate(1.000000, 0.000000)">
                    <g id="g91" fill="#E2001A">
                        <path d="M28.98801,0.371 L0.435,31.59799" id="line93"></path>
                    </g>
                    <g id="g95" fill="#2e2e2c">
                        <path d="M-0.172,31.625 L0.462,32.209 L29.598,0.342 L28.959,-0.241 L-0.172,31.625 Z" id="polygon97"></path>
                    </g>
                </g>
                <g id="g99" transform="translate(0.000000, 13.000000)" fill="#2e2e2c">
                    <g id="g101">
                        <path d="M42.106,0.514 L41.611,-0.195 L41.257,0.054 L5.276,25.289 L3.046,25.736 L0.976,22.746 L1.656,18.408 L0.803,18.273 L0.07,22.955 L2.659,26.693 L5.621,26.099 L5.697,26.049 L42.106,0.514 Z" id="polygon103"></path>
                    </g>
                </g>
                <g id="g105" transform="translate(24.000000, 0.000000)" fill="#2e2e2c">
                    <g id="g107">
                        <path d="M7.619,17.917 C7.657,17.938 7.702,17.958 7.75,17.968 C7.91,18.004 8.074,17.947 8.18,17.82 L11.862,13.273 L17.692,13.725 C17.856,13.738 18.011,13.656 18.094,13.514 C18.181,13.373 18.176,13.197 18.086,13.058 L14.899,8.155 L17.131,2.749 C17.194,2.597 17.165,2.422 17.058,2.299 C16.947,2.176 16.779,2.123 16.62,2.165 L10.972,3.683 L6.518,-0.111 C6.393,-0.22 6.221,-0.246 6.068,-0.179 C5.917,-0.113 5.817,0.031 5.808,0.196 L5.808,0.196 L5.505,6.036 L0.52,9.096 C0.379,9.182 0.3,9.341 0.316,9.506 C0.333,9.668 0.437,9.809 0.591,9.868 L6.053,11.962 L7.425,17.647 C7.451,17.76 7.522,17.857 7.619,17.917 L7.619,17.917 L7.619,17.917 Z M16.886,12.794 L11.7,12.393 C11.556,12.381 11.419,12.441 11.329,12.551 L8.059,16.593 L6.838,11.537 C6.803,11.398 6.706,11.287 6.573,11.236 L1.718,9.374 L6.15,6.652 C6.273,6.576 6.348,6.446 6.355,6.306 L6.626,1.112 L10.584,4.486 C10.69,4.577 10.84,4.612 10.976,4.574 L16.002,3.226 L14.015,8.033 C13.959,8.165 13.973,8.312 14.052,8.433 L16.886,12.794 L16.886,12.794 Z" id="path109"></path>
                    </g>
                </g>
            </g>
            <g id="g111" transform="translate(93.055640, 46.382120)" sketch:type="MSShapeGroup">
                <g id="g113">
                    <path d="M35.745,14.298 L3.489,27.385 L1.232,27.314 L-0.05,24.069 L1.053,20.939 L31.733,0.276 L34.411,4.204 L39.486,4.467 L36.736,8.45 L38.294,13.367 L35.745,14.298 Z" id="polygon115" fill="#f3df49"></path>
                    <path d="M1.129,27.461 L-0.211,24.072 L0.93,20.845 L0.97,20.817 L31.773,0.069 L34.49,4.058 L39.761,4.333 L36.902,8.471 L38.483,13.459 L35.796,14.437 L3.518,27.531 L1.129,27.461 L1.129,27.461 Z M0.11,24.068 L1.336,27.17 L3.459,27.233 L35.689,14.161 L38.111,13.277 L36.572,8.423 L39.214,4.603 L34.327,4.347 L31.694,0.48 L1.176,21.034 L0.11,24.068 L0.11,24.068 Z" id="path117" fill="#FFFFFF"></path>
                </g>
            </g>
            <path d="M94.07264,67.00612 L93.20664,70.08312 L117.99964,53.54412 L123.23464,51.94812 L124.31364,46.70612" id="polyline119" fill="#F6CC1E" sketch:type="MSShapeGroup"></path>
            <path d="M122.46864,61.30012 L122.37864,56.53812 L93.78064,71.59112 L93.93264,73.28812 L122.46864,61.30012 Z" id="polygon121" fill="#F6CC1E" sketch:type="MSShapeGroup"></path>
            <g id="g123" transform="translate(93.055640, 46.382120)" sketch:type="MSShapeGroup">
                <g id="g125" transform="translate(0.000000, 9.000000)" fill="#2e2e2c">
                    <g id="g127">
                        <path d="M0.155,16.129 L0.5,16.779 L29.767,1.084 L29.417,0.435 L0.155,16.129 Z" id="polygon129"></path>
                    </g>
                </g>
                <g id="g131" transform="translate(0.000000, 7.000000)" fill="#2e2e2c">
                    <g id="g133">
                        <path d="M-0.303,16.887 L0.112,17.494 L25.402,0.234 L24.984,-0.371 L-0.303,16.887 Z" id="polygon135"></path>
                    </g>
                </g>
                <g id="g137" transform="translate(1.000000, 15.000000)" fill="#2e2e2c">
                    <g id="g139">
                        <path d="M-0.123,11.906 L0.169,12.58 L28.686,0.189 L28.392,-0.484 L-0.123,11.906 Z" id="polygon141"></path>
                    </g>
                </g>
                <g id="g143" transform="translate(1.000000, 0.000000)">
                    <g id="g145" transform="translate(1.000000, 0.000000)" fill="#E2001A">
                        <path d="M29.258,0.32401 L-0.47198,20.71899" id="line147"></path>
                    </g>
                    <g id="g149" fill="#2e2e2c">
                        <path d="M0.017,20.624 L0.434,21.23 L30.769,0.417 L30.352,-0.19 L0.017,20.624 Z" id="polygon151"></path>
                    </g>
                </g>
                <g id="g153" transform="translate(0.000000, 13.000000)" fill="#2e2e2c">
                    <g id="g155">
                        <path d="M38.776,0.573 L38.499,-0.112 L38.161,0.025 L3.422,14.015 L1.485,13.953 L0.345,11.072 L1.748,7.605 L1.066,7.326 L-0.447,11.07 L0.978,14.674 L3.553,14.753 L3.626,14.727 L38.776,0.573 Z" id="polygon157"></path>
                    </g>
                </g>
                <g id="g159" transform="translate(25.000000, 0.000000)" fill="#2e2e2c">
                    <g id="g161">
                        <path d="M4.221,15.201 C4.247,15.224 4.282,15.248 4.319,15.267 C4.445,15.328 4.593,15.312 4.704,15.226 L8.639,12.164 L13.389,13.666 C13.524,13.71 13.668,13.67 13.766,13.57 C13.865,13.47 13.895,13.322 13.847,13.189 L12.15,8.505 L15.047,4.448 C15.131,4.335 15.14,4.184 15.073,4.061 C15.008,3.936 14.875,3.861 14.735,3.865 L9.755,4.032 L6.795,0.024 C6.709,-0.091 6.571,-0.145 6.434,-0.12 C6.295,-0.095 6.185,0.007 6.146,0.14 L6.146,0.14 L4.764,4.93 L0.035,6.506 C-0.097,6.549 -0.194,6.666 -0.212,6.805 C-0.232,6.943 -0.169,7.082 -0.055,7.16 L4.072,9.953 L4.114,14.935 C4.11,15.036 4.152,15.131 4.221,15.201 L4.221,15.201 L4.221,15.201 Z M12.897,12.74 L8.675,11.404 C8.557,11.367 8.431,11.39 8.335,11.465 L4.839,14.189 L4.806,9.756 C4.803,9.633 4.745,9.522 4.643,9.453 L0.974,6.97 L5.178,5.567 C5.291,5.53 5.381,5.436 5.416,5.323 L6.644,1.064 L9.277,4.628 C9.346,4.727 9.464,4.782 9.584,4.776 L14.015,4.63 L11.437,8.234 C11.367,8.336 11.35,8.461 11.39,8.575 L12.897,12.74 L12.897,12.74 Z" id="path163"></path>
                    </g>
                </g>
            </g>
            <g id="g165" transform="translate(8.055640, 0.382120)" sketch:type="MSShapeGroup">
                <g id="g167">
                    <g id="g169">
                        <path d="M3.476,15.522 L36.903,50.479 L39.804,51.678 L43.274,48.296 L43.657,43.7 L16.547,0.036 L10.92,3.488 L4.334,0.932 L5.553,7.543 L0.772,12.889 L3.476,15.522 Z" id="polygon171" fill="#f3df49"></path>
                        <path d="M39.85,51.922 L43.474,48.393 L43.872,43.65 L43.834,43.592 L16.614,-0.248 L10.899,3.259 L4.063,0.606 L5.332,7.482 L0.487,12.899 L3.332,15.669 L36.783,50.654 L39.85,51.922 L39.85,51.922 Z M43.075,48.205 L39.755,51.434 L37.025,50.306 L3.625,15.379 L1.06,12.879 L5.777,7.604 L4.606,1.257 L10.943,3.716 L16.481,0.319 L43.449,43.752 L43.075,48.205 L43.075,48.205 Z" id="path173" fill="#FFFFFF"></path>
                    </g>
                </g>
                <path d="M43.887,43.32 L43.229,47.71 L21.228,12.629 L15.503,7.628 L17.125,0.366" id="polyline175" fill="#F6CC1E"></path>
                <path d="M11.147,19.913 L13.973,13.93 L41.645,49.297 L40.486,51.361 L11.147,19.913 Z" id="polygon177" fill="#F6CC1E"></path>
                <g id="g179">
                    <g id="g181" transform="translate(13.000000, 13.000000)" fill="#2e2e2c">
                        <g id="g183">
                            <path d="M29.412,36.523 L28.603,37.146 L0.457,0.587 L1.268,-0.036 L29.412,36.523 Z" id="polygon185"></path>
                        </g>
                    </g>
                    <g id="g187" transform="translate(21.000000, 12.000000)" fill="#2e2e2c">
                        <g id="g189">
                            <path d="M22.702,36.206 L21.827,36.74 L-0.392,0.462 L0.483,-0.073 L22.702,36.206 Z" id="polygon191"></path>
                        </g>
                    </g>
                    <g id="g193" transform="translate(11.000000, 19.000000)" fill="#2e2e2c">
                        <g id="g195">
                            <path d="M29.486,32.361 L28.729,33.051 L-0.351,1.104 L0.404,0.416 L29.486,32.361 Z" id="polygon197"></path>
                        </g>
                    </g>
                    <g id="g199" transform="translate(16.000000, 0.000000)">
                        <g id="g201" transform="translate(1.000000, 0.000000)" fill="#E2001A">
                            <path d="M0.125,0.366 L26.18399,43.14899" id="line203"></path>
                        </g>
                        <g id="g205" fill="#2e2e2c">
                            <path d="M27.887,43.32 L27.014,43.854 L0.423,0.196 L1.296,-0.336 L27.887,43.32 Z" id="polygon207"></path>
                        </g>
                    </g>
                    <g id="g209" transform="translate(0.000000, 12.000000)" fill="#2e2e2c">
                        <g id="g211">
                            <path d="M0.05,0.875 L0.787,0.166 L1.141,0.535 L37.198,38.051 L39.688,39.076 L42.773,36.075 L42.97,30.881 L43.99,30.917 L43.778,36.521 L39.917,40.277 L36.608,38.912 L36.535,38.835 L0.05,0.875 Z" id="polygon213"></path>
                        </g>
                    </g>
                    <g id="g215" fill="#2e2e2c">
                        <g id="g217">
                            <path d="M11.232,20.378 C11.181,20.397 11.127,20.409 11.069,20.41 C10.875,20.415 10.696,20.31 10.602,20.138 L7.363,14.017 L0.487,13.216 C0.294,13.194 0.131,13.063 0.063,12.88 C-0.002,12.696 0.042,12.492 0.177,12.353 L4.996,7.379 L3.634,0.591 C3.597,0.4 3.672,0.205 3.824,0.084 C3.978,-0.034 4.184,-0.055 4.358,0.031 L10.578,3.079 L16.613,-0.315 C16.788,-0.413 16.992,-0.402 17.155,-0.293 C17.313,-0.181 17.4,0.009 17.37,0.203 L17.37,0.203 L16.392,7.058 L21.488,11.749 C21.632,11.881 21.686,12.082 21.632,12.27 C21.576,12.456 21.422,12.596 21.227,12.629 L14.407,13.818 L11.518,20.111 C11.463,20.237 11.356,20.333 11.232,20.378 L11.232,20.378 L11.232,20.378 Z M1.635,12.319 L7.749,13.031 C7.918,13.051 8.064,13.153 8.145,13.302 L11.022,18.743 L13.591,13.147 C13.661,12.993 13.798,12.884 13.969,12.856 L20.033,11.798 L15.503,7.627 C15.38,7.512 15.319,7.345 15.345,7.179 L16.212,1.083 L10.848,4.1 C10.702,4.182 10.523,4.187 10.37,4.113 L4.841,1.404 L6.054,7.44 C6.087,7.607 6.037,7.776 5.92,7.897 L1.635,12.319 L1.635,12.319 Z" id="path219"></path>
                        </g>
                    </g>
                </g>
            </g>
            <g id="g221" transform="translate(3.055640, 23.382120)" sketch:type="MSShapeGroup">
                <g id="g223" transform="translate(0.000000, 1.000000)">
                    <g id="g225">
                        <path d="M3.222,14.712 L36.611,38.256 L39.208,38.777 L41.536,35.41 L41.11,31.539 L11.539,-0.25 L7.437,3.528 L1.563,2.478 L3.646,7.761 L0.554,12.969 L3.222,14.712 Z" id="polygon227" fill="#f3df49"></path>
                        <path d="M39.285,38.971 L41.718,35.455 L41.277,31.461 L41.238,31.42 L11.55,-0.496 L7.385,3.339 L1.288,2.251 L3.455,7.743 L0.318,13.023 L3.129,14.856 L36.541,38.42 L39.285,38.971 L39.285,38.971 Z M41.357,35.366 L39.128,38.584 L36.682,38.092 L3.322,14.568 L0.789,12.914 L3.841,7.775 L1.841,2.704 L7.491,3.715 L11.532,-0.002 L40.943,31.616 L41.357,35.366 L41.357,35.366 Z" id="path229" fill="#FFFFFF"></path>
                    </g>
                </g>
                <path d="M41.233,32.186 L41.401,35.932 L17.469,10.428 L11.91,7.213 L12.071,0.931" id="polyline231" fill="#F6CC1E"></path>
                <path d="M10.295,18.105 L11.667,12.687 L40.349,37.506 L39.724,39.405 L10.295,18.105 Z" id="polygon233" fill="#F6CC1E"></path>
                <g id="g235">
                    <g id="g237" transform="translate(11.000000, 12.000000)" fill="#2e2e2c">
                        <g id="g239">
                            <path d="M30.021,25.566 L29.45,26.215 L0.178,0.486 L0.75,-0.163 L30.021,25.566 Z" id="polygon241"></path>
                        </g>
                    </g>
                    <g id="g243" transform="translate(17.000000, 10.000000)" fill="#2e2e2c">
                        <g id="g245">
                            <path d="M24.873,26.266 L24.237,26.85 L-0.076,0.389 L0.565,-0.194 L24.873,26.266 Z" id="polygon247"></path>
                        </g>
                    </g>
                    <g id="g249" transform="translate(10.000000, 18.000000)" fill="#2e2e2c">
                        <g id="g251">
                            <path d="M29.724,21.405 L29.207,22.097 L-0.086,0.343 L0.425,-0.352 L29.724,21.405 Z" id="polygon253"></path>
                        </g>
                    </g>
                    <g id="g255" transform="translate(11.000000, 0.000000)">
                        <g id="g257" transform="translate(1.000000, 1.000000)" fill="#E2001A">
                            <path d="M0.071,-0.069 L28.62601,31.16" id="line259"></path>
                        </g>
                        <g id="g261" fill="#2e2e2c">
                            <path d="M30.233,32.186 L29.597,32.77 L0.462,0.903 L1.101,0.321 L30.233,32.186 Z" id="polygon263"></path>
                        </g>
                    </g>
                    <g id="g265" transform="translate(0.000000, 13.000000)" fill="#2e2e2c">
                        <g id="g267">
                            <path d="M-0.046,1.075 L0.449,0.366 L0.801,0.615 L36.782,25.852 L39.015,26.297 L41.084,23.309 L40.403,18.971 L41.259,18.834 L41.991,23.516 L39.4,27.256 L36.439,26.662 L36.364,26.61 L-0.046,1.075 Z" id="polygon269"></path>
                        </g>
                    </g>
                    <g id="g271" fill="#2e2e2c">
                        <g id="g273">
                            <path d="M10.441,18.477 C10.403,18.499 10.358,18.519 10.311,18.53 C10.149,18.566 9.984,18.508 9.879,18.38 L6.198,13.834 L0.368,14.286 C0.205,14.299 0.048,14.218 -0.034,14.075 C-0.121,13.935 -0.118,13.759 -0.026,13.619 L3.16,8.715 L0.93,3.31 C0.865,3.158 0.894,2.983 1.001,2.86 C1.11,2.736 1.279,2.684 1.439,2.727 L7.088,4.244 L11.539,0.45 C11.667,0.341 11.841,0.315 11.99,0.381 C12.141,0.447 12.243,0.591 12.252,0.756 L12.252,0.756 L12.555,6.596 L17.54,9.656 C17.681,9.743 17.759,9.901 17.742,10.066 C17.728,10.228 17.621,10.37 17.469,10.429 L12.007,12.523 L10.636,18.209 C10.61,18.321 10.539,18.418 10.441,18.477 L10.441,18.477 L10.441,18.477 Z M1.176,13.356 L6.361,12.953 C6.503,12.943 6.643,13.002 6.73,13.112 L10.001,17.155 L11.222,12.099 C11.253,11.96 11.353,11.848 11.487,11.798 L16.342,9.935 L11.91,7.214 C11.787,7.14 11.713,7.009 11.704,6.869 L11.434,1.675 L7.476,5.049 C7.37,5.139 7.219,5.174 7.083,5.137 L2.059,3.788 L4.044,8.595 C4.101,8.728 4.084,8.875 4.009,8.994 L1.176,13.356 L1.176,13.356 Z" id="path275"></path>
                        </g>
                    </g>
                </g>
            </g>
            <g id="g277" transform="translate(0.055640, 43.382120)" sketch:type="MSShapeGroup">
                <g id="g279" transform="translate(0.000000, 1.000000)">
                    <g id="g281">
                        <path d="M4.314,13.86 L36.573,26.945 L38.826,26.875 L40.11,23.631 L39.009,20.5 L8.327,-0.163 L5.65,3.764 L0.575,4.028 L3.323,8.011 L1.765,12.93 L4.314,13.86 Z" id="polygon283" fill="#f3df49"></path>
                        <path d="M38.932,27.021 L40.27,23.634 L39.132,20.405 L39.092,20.376 L8.285,-0.37 L5.569,3.619 L0.3,3.895 L3.157,8.032 L1.576,13.018 L4.264,13.997 L36.543,27.092 L38.932,27.021 L38.932,27.021 Z M39.951,23.629 L38.723,26.731 L36.599,26.794 L4.369,13.723 L1.948,12.838 L3.486,7.984 L0.847,4.164 L5.731,3.909 L8.365,0.043 L38.883,20.596 L39.951,23.629 L39.951,23.629 Z" id="path285" fill="#FFFFFF"></path>
                    </g>
                </g>
                <path d="M39.042,21.184 L39.91,24.262 L15.116,7.723 L9.882,6.129 L8.803,0.885" id="polyline287" fill="#F6CC1E"></path>
                <path d="M10.646,15.48 L10.737,10.719 L39.337,25.77 L39.185,27.467 L10.646,15.48 Z" id="polygon289" fill="#F6CC1E"></path>
                <g id="g291">
                    <g id="g293" transform="translate(10.000000, 10.000000)" fill="#2e2e2c">
                        <g id="g295">
                            <path d="M29.905,15.689 L29.557,16.34 L0.295,0.645 L0.644,-0.004 L29.905,15.689 Z" id="polygon297"></path>
                        </g>
                    </g>
                    <g id="g299" transform="translate(15.000000, 7.000000)" fill="#2e2e2c">
                        <g id="g301">
                            <path d="M25.363,17.445 L24.946,18.056 L-0.341,0.795 L0.075,0.188 L25.363,17.445 Z" id="polygon303"></path>
                        </g>
                    </g>
                    <g id="g305" transform="translate(10.000000, 15.000000)" fill="#2e2e2c">
                        <g id="g307">
                            <path d="M29.185,12.467 L28.889,13.142 L0.376,0.752 L0.668,0.076 L29.185,12.467 Z" id="polygon309"></path>
                        </g>
                    </g>
                    <g id="g311" transform="translate(8.000000, 0.000000)">
                        <g id="g313" transform="translate(1.000000, 1.000000)" fill="#E2001A">
                            <path d="M-0.19701,-0.11499 L29.53201,20.28101" id="line315"></path>
                        </g>
                        <g id="g317" fill="#2e2e2c">
                            <path d="M31.042,21.184 L30.628,21.791 L0.291,0.978 L0.709,0.372 L31.042,21.184 Z" id="polygon319"></path>
                        </g>
                    </g>
                    <g id="g321" transform="translate(1.000000, 13.000000)" fill="#2e2e2c">
                        <g id="g323">
                            <path d="M0.285,1.135 L0.56,0.449 L0.901,0.587 L35.637,14.576 L37.576,14.516 L38.714,11.635 L37.313,8.167 L37.995,7.888 L39.505,11.632 L38.081,15.234 L35.507,15.314 L35.436,15.287 L0.285,1.135 Z" id="polygon325"></path>
                        </g>
                    </g>
                    <g id="g327" fill="#2e2e2c">
                        <g id="g329">
                            <path d="M10.841,15.762 C10.813,15.785 10.779,15.809 10.74,15.828 C10.613,15.89 10.467,15.873 10.354,15.787 L6.421,12.725 L1.671,14.229 C1.535,14.272 1.393,14.233 1.294,14.13 C1.196,14.032 1.165,13.885 1.215,13.75 L2.911,9.066 L0.015,5.011 C-0.068,4.896 -0.079,4.748 -0.012,4.625 C0.054,4.5 0.184,4.423 0.327,4.428 L5.306,4.596 L8.268,0.587 C8.352,0.472 8.49,0.418 8.627,0.441 C8.768,0.467 8.878,0.567 8.917,0.702 L8.917,0.702 L10.297,5.491 L15.027,7.066 C15.157,7.111 15.256,7.228 15.274,7.368 C15.292,7.504 15.23,7.643 15.116,7.722 L10.986,10.515 L10.947,15.498 C10.951,15.6 10.909,15.691 10.841,15.762 L10.841,15.762 L10.841,15.762 Z M2.163,13.302 L6.386,11.964 C6.502,11.928 6.63,11.949 6.725,12.026 L10.22,14.748 L10.255,10.316 C10.258,10.193 10.315,10.081 10.415,10.015 L14.086,7.531 L9.882,6.129 C9.767,6.09 9.677,5.997 9.644,5.884 L8.417,1.625 L5.783,5.189 C5.715,5.284 5.597,5.342 5.476,5.336 L1.045,5.19 L3.622,8.792 C3.692,8.893 3.71,9.017 3.671,9.132 L2.163,13.302 L2.163,13.302 Z" id="path331"></path>
                        </g>
                    </g>
                </g>
            </g>
            <g id="g333" transform="translate(19.055640, 41.382120)" sketch:type="MSShapeGroup">
                <g id="g335" transform="translate(1.000000, 1.000000)" fill="#FFFFFF">
                    <path d="M8.322,-0.008 C8.322,-0.008 4.422,0.262 3.679,4.096 C3.679,4.096 3.477,6.316 4.083,8.872 C4.083,8.872 6.235,17.348 3.813,22.864 C3.813,22.864 0.448,29.927 0.18,31.543 C0.18,31.543 -1.098,38.471 0.112,43.584 C0.112,43.584 2.67,52.33 4.552,55.223 C4.552,55.223 8.388,56.233 11.685,55.157 C11.685,55.157 15.654,48.698 16.46,42.845 C16.46,42.845 17.469,36.657 16.394,32.216 C16.394,32.216 14.105,26.363 11.885,20.78 C11.885,20.78 11.145,17.417 11.751,12.976 C11.751,12.976 13.365,6.181 12.492,2.953 C12.494,2.952 11.146,0.193 8.322,-0.008 L8.322,-0.008 Z" id="path337"></path>
                </g>
                <g id="g339" fill="#2e2e2c">
                    <g id="g341">
                        <path d="M8.719,0.195 C1.186,0.841 4.884,10.285 5.196,14.887 C5.458,18.765 4.612,21.999 3.031,25.456 C1.949,27.823 0.686,30.247 0.306,32.847 C-0.233,36.537 -0.569,40.732 0.515,44.353 C1.472,47.555 2.527,50.753 3.875,53.814 C4.331,54.851 4.888,56.261 5.886,56.906 C7.059,57.661 9.324,57.468 10.62,57.426 C12.405,57.369 13.206,57.258 14.004,55.828 C15.023,53.996 15.896,52.086 16.658,50.135 C18.402,45.675 19.082,40.346 18.416,35.594 C18.132,33.559 17.312,31.785 16.562,29.875 C15.497,27.165 13.807,24.212 13.419,21.316 C12.775,16.504 14.346,12.081 14.469,7.323 C14.559,3.872 12.329,0.677 8.719,0.195 C8.52,0.168 9.357,1.712 9.924,1.788 C13.709,2.292 13.165,5.591 12.86,8.487 C12.635,10.612 12.068,12.674 11.875,14.8 C11.697,16.747 11.501,19.48 12.253,21.366 C13.642,24.868 15.021,28.37 16.394,31.878 C18.198,36.476 17.174,42.933 15.66,47.542 C14.788,50.195 13.539,52.759 12.132,55.167 C11.614,56.048 9.05,55.856 8.151,55.847 C7.086,55.834 5.988,55.687 4.955,55.425 C5.333,55.765 5.712,56.106 6.091,56.446 C4.609,54.061 3.771,51.229 2.893,48.584 C2.182,46.438 1.576,44.459 1.384,42.19 C1.143,39.31 1.397,36.346 1.857,33.499 C2.201,31.378 3.357,29.316 4.233,27.376 C5.057,25.552 5.922,23.864 6.343,21.884 C6.998,18.814 6.693,15.53 6.194,12.458 C5.835,10.247 5.26,8.127 5.396,5.855 C5.528,3.638 7.867,1.962 9.927,1.787 C10.246,1.76 9.245,0.149 8.719,0.195 L8.719,0.195 Z" id="path343"></path>
                    </g>
                </g>
            </g>
            <g id="g345" transform="translate(25.055640, 56.382120)" fill="#2e2e2c" sketch:type="MSShapeGroup">
                <path d="M6.575,0.475 C3.546,-0.004 1.376,0.055 -0.121,0.282 L0.022,3.677 C2.31,3.081 4.649,3.22 6.528,3.55 C6.431,2.668 6.49,1.453 6.575,0.475 L6.575,0.475 Z" id="path347"></path>
            </g>
            <g id="g349" transform="translate(24.055640, 61.382120)" fill="#2e2e2c" sketch:type="MSShapeGroup">
                <path d="M7.71,-0.053 C4.353,-0.571 2.057,-0.428 0.577,-0.133 L-0.235,3.678 C2.832,2.376 6.218,2.685 8.586,3.199 L7.71,-0.053 L7.71,-0.053 Z" id="path351"></path>
            </g>
            <g id="g353" transform="translate(26.055640, 54.382120)" fill="#FFFFFF" sketch:type="MSShapeGroup">
                <path d="M1.111,11.873 L0.746,6.023 L1.179,0.772 L0.236,0.236 L0.105,6.021 L-0.033,12.344 L1.111,11.873 Z" id="polygon355"></path>
            </g>
            <g id="g357" transform="translate(29.055640, 30.382120)" sketch:type="MSShapeGroup">
                <g id="g359" transform="translate(1.000000, 1.000000)" fill="#FFFFFF">
                    <path d="M10.146,0.072 C10.146,0.072 5.458,0.395 4.567,5.005 C4.567,5.005 4.325,7.672 5.051,10.746 C5.051,10.746 7.638,20.934 4.728,27.562 C4.728,27.562 0.685,36.052 0.362,37.994 C0.362,37.994 -1.173,46.32 0.279,52.468 C0.279,52.468 3.353,62.979 5.618,66.455 C5.618,66.455 10.226,67.668 14.189,66.375 C14.189,66.375 18.958,58.613 19.931,51.578 C19.931,51.578 21.144,44.14 19.85,38.803 C19.85,38.803 17.1,31.768 14.432,25.057 C14.432,25.057 13.542,21.014 14.271,15.677 C14.271,15.677 16.21,7.511 15.158,3.63 C15.157,3.629 13.542,0.314 10.146,0.072 L10.146,0.072 Z" id="path361"></path>
                </g>
                <g id="g363" fill="#2e2e2c">
                    <g id="g365">
                        <path d="M10.543,0.275 C7.9,0.495 5.788,2.268 4.979,4.756 C4.114,7.42 5.307,10.625 5.788,13.298 C6.582,17.725 6.794,22.494 5.417,26.823 C4.563,29.492 3.058,32.016 1.975,34.599 C0.937,37.087 0.437,39.242 0.168,41.917 C-0.216,45.722 -0.342,49.847 0.774,53.548 C1.777,56.87 2.884,60.173 4.192,63.392 C4.743,64.751 5.333,66.251 6.225,67.435 C6.945,68.382 7.884,68.418 9.002,68.581 C11.014,68.88 13.241,68.911 15.208,68.34 C16.208,68.049 16.399,67.258 16.895,66.349 C18.909,62.638 20.572,58.662 21.439,54.519 C22.103,51.339 22.248,47.977 22.126,44.744 C21.996,41.299 20.862,38.609 19.617,35.448 C18.165,31.754 16.14,28.051 15.796,24.063 C15.493,20.576 16.08,17.372 16.65,13.981 C17.084,11.379 18.022,7.187 16.633,4.738 C15.34,2.466 13.189,0.602 10.543,0.275 C10.339,0.25 11.183,1.797 11.746,1.868 C18.863,2.745 14.826,12.948 14.379,17.544 C14.147,19.933 13.871,23.328 14.793,25.647 C16.472,29.872 18.139,34.102 19.798,38.336 C20.977,41.348 20.821,44.848 20.623,48.027 C20.438,51.044 19.932,53.977 19.007,56.859 C17.952,60.144 16.425,63.316 14.69,66.293 C14.046,67.393 11.133,67.178 9.978,67.17 C8.661,67.158 7.296,66.982 6.017,66.658 C6.392,66.998 6.773,67.338 7.151,67.679 C5.313,64.742 4.286,61.227 3.209,57.959 C2.303,55.214 1.597,52.707 1.416,49.784 C1.219,46.466 1.503,43.063 2.062,39.789 C2.497,37.259 3.921,34.761 4.97,32.448 C6.028,30.111 7.079,27.986 7.53,25.423 C8.162,21.814 7.803,18.023 7.189,14.438 C6.747,11.858 6.073,9.352 6.285,6.699 C6.496,4.062 9.283,2.072 11.748,1.867 C12.07,1.841 11.072,0.231 10.543,0.275 L10.543,0.275 Z" id="path367"></path>
                    </g>
                </g>
            </g>
            <g id="g369" transform="translate(36.055640, 48.382120)" fill="#2e2e2c" sketch:type="MSShapeGroup">
                <path d="M8.054,0.479 C4.414,-0.098 1.806,-0.025 0.005,0.246 L0.178,4.329 C2.928,3.61 5.742,3.775 7.999,4.173 C7.88,3.114 7.951,1.655 8.054,0.479 L8.054,0.479 Z" id="path371"></path>
            </g>
            <g id="g373" transform="translate(35.055640, 53.382120)" fill="#2e2e2c" sketch:type="MSShapeGroup">
                <path d="M9.216,0.854 C5.185,0.234 2.423,0.403 0.644,0.757 L-0.332,5.34 C3.356,3.775 7.426,4.143 10.271,4.763 L9.216,0.854 L9.216,0.854 Z" id="path375"></path>
            </g>
            <g id="g377" transform="translate(37.055640, 46.382120)" fill="#FFFFFF" sketch:type="MSShapeGroup">
                <path d="M1.688,13.775 L1.253,6.746 L1.771,0.435 L0.638,-0.213 L0.485,6.742 L0.313,14.342 L1.688,13.775 Z" id="polygon379"></path>
            </g>
            <g id="g381" transform="translate(93.055640, 42.382120)" sketch:type="MSShapeGroup">
                <g id="g383" transform="translate(1.000000, 1.000000)" fill="#FFFFFF">
                    <path d="M8.891,-0.073 C8.891,-0.073 4.991,0.196 4.249,4.032 C4.249,4.032 4.045,6.251 4.65,8.806 C4.65,8.806 6.802,17.283 4.381,22.798 C4.381,22.798 1.019,29.862 0.749,31.479 C0.749,31.479 -0.53,38.408 0.68,43.518 C0.68,43.518 3.239,52.265 5.121,55.158 C5.121,55.158 8.956,56.169 12.252,55.092 C12.252,55.092 16.223,48.632 17.029,42.78 C17.029,42.78 18.038,36.592 16.96,32.152 C16.96,32.152 14.673,26.298 12.454,20.714 C12.454,20.714 11.713,17.351 12.32,12.912 C12.32,12.912 13.933,6.116 13.058,2.887 C13.06,2.888 11.714,0.128 8.891,-0.073 L8.891,-0.073 Z" id="path385"></path>
                </g>
                <g id="g387" fill="#2e2e2c">
                    <g id="g389">
                        <path d="M9.288,0.131 C1.753,0.776 5.452,10.22 5.762,14.823 C6.029,18.701 5.18,21.933 3.6,25.392 C2.515,27.761 1.255,30.183 0.874,32.784 C0.335,36.473 -1.22124533e-15,40.668 1.081,44.29 C2.039,47.491 3.096,50.686 4.442,53.752 C4.9,54.787 5.456,56.197 6.452,56.84 C7.628,57.598 9.891,57.404 11.187,57.362 C12.97,57.304 13.773,57.193 14.57,55.763 C15.591,53.931 16.463,52.021 17.226,50.072 C18.97,45.611 19.65,40.284 18.985,35.531 C18.699,33.494 17.879,31.72 17.129,29.812 C16.066,27.103 14.376,24.147 13.988,21.253 C13.342,16.439 14.912,12.018 15.038,7.259 C15.125,3.809 12.897,0.614 9.288,0.131 C9.088,0.104 9.925,1.648 10.492,1.724 C14.277,2.23 13.732,5.525 13.426,8.42 C13.203,10.548 12.635,12.61 12.443,14.735 C12.265,16.683 12.068,19.417 12.819,21.304 C14.209,24.802 15.589,28.307 16.964,31.815 C18.763,36.414 17.741,42.869 16.227,47.478 C15.356,50.131 14.108,52.697 12.699,55.105 C12.183,55.986 9.619,55.794 8.718,55.783 C7.656,55.772 6.555,55.622 5.522,55.361 C5.902,55.703 6.28,56.043 6.658,56.382 C5.177,53.999 4.339,51.165 3.46,48.521 C2.749,46.376 2.146,44.396 1.954,42.125 C1.711,39.247 1.965,36.282 2.425,33.435 C2.77,31.315 3.925,29.251 4.801,27.314 C5.625,25.488 6.492,23.801 6.911,21.823 C7.566,18.752 7.259,15.467 6.761,12.394 C6.403,10.183 5.828,8.062 5.964,5.791 C6.097,3.574 8.435,1.898 10.495,1.724 C10.814,1.695 9.813,0.085 9.288,0.131 L9.288,0.131 Z" id="path391"></path>
                    </g>
                </g>
            </g>
            <g id="g393" transform="translate(99.055640, 57.382120)" fill="#2e2e2c" sketch:type="MSShapeGroup">
                <path d="M7.141,0.408 C4.114,-0.071 1.945,-0.01 0.449,0.217 L0.591,3.612 C2.878,3.016 5.218,3.154 7.095,3.485 C7,2.604 7.058,1.389 7.141,0.408 L7.141,0.408 Z" id="path395"></path>
            </g>
            <g id="g397" transform="translate(98.055640, 62.382120)" fill="#2e2e2c" sketch:type="MSShapeGroup">
                <path d="M8.278,-0.117 C4.92,-0.635 2.625,-0.492 1.145,-0.197 L0.333,3.615 C3.398,2.314 6.786,2.62 9.153,3.135 L8.278,-0.117 L8.278,-0.117 Z" id="path399"></path>
            </g>
            <g id="g401" transform="translate(101.055640, 55.382120)" fill="#FFFFFF" sketch:type="MSShapeGroup">
                <path d="M0.68,11.809 L0.313,5.959 L0.745,0.709 L-0.197,0.172 L-0.324,5.957 L-0.466,12.279 L0.68,11.809 Z" id="polygon403"></path>
            </g>
            <g id="g405" transform="translate(41.055640, 19.382120)" sketch:type="MSShapeGroup">
                <g id="g407" transform="translate(0.000000, 1.000000)" fill="#FFFFFF">
                    <path d="M12.576,0.038 C12.576,0.038 7.158,0.413 6.13,5.739 C6.13,5.739 5.85,8.822 6.69,12.372 C6.69,12.372 9.681,24.145 6.317,31.807 C6.317,31.807 1.643,41.618 1.271,43.862 C1.271,43.862 -0.505,53.486 1.177,60.587 C1.177,60.587 4.727,72.734 7.345,76.752 C7.345,76.752 12.669,78.153 17.249,76.659 C17.249,76.659 22.76,67.688 23.882,59.561 C23.882,59.561 25.284,50.963 23.788,44.796 C23.788,44.796 20.611,36.666 17.527,28.911 C17.527,28.911 16.502,24.24 17.341,18.071 C17.341,18.071 19.583,8.635 18.368,4.149 C18.369,4.149 16.502,0.318 12.576,0.038 L12.576,0.038 Z" id="path409"></path>
                </g>
                <g id="g411" fill="#2e2e2c">
                    <g id="g413">
                        <path d="M11.975,0.241 C9.545,0.438 7.321,1.868 6.124,3.972 C4.608,6.647 5.444,10.423 6.087,13.217 C6.915,16.82 7.275,20.554 7.174,24.246 C7.076,27.851 6.1,30.995 4.612,34.215 C3.239,37.18 1.808,40.176 0.783,43.285 C-0.069,45.873 -0.096,48.897 -0.223,51.582 C-0.566,58.999 1.626,65.641 4.365,72.442 C5.142,74.376 6.127,78.16 8.483,78.67 C10.468,79.1 12.511,79.209 14.535,79.086 C16.063,78.996 17.627,78.979 18.408,77.621 C22.338,70.785 24.74,63.502 25.143,55.629 C25.332,51.885 25.182,48.131 23.808,44.627 C22.977,42.504 22.144,40.385 21.308,38.266 C20.835,37.067 20.361,35.867 19.886,34.668 C19.349,33.303 18.5,31.814 18.206,30.377 C17.49,26.862 17.4,22.754 18.173,19.257 C18.953,15.723 19.527,12.059 19.432,8.431 C19.325,4.346 16.115,0.731 11.975,0.241 C11.766,0.218 12.613,1.766 13.18,1.834 C21.383,2.805 17.179,13.942 16.525,19.173 C16.209,21.707 16.229,24.288 16.465,26.828 C16.543,27.674 16.572,28.698 16.891,29.5 C18.83,34.376 20.753,39.259 22.667,44.148 C24.093,47.783 23.879,52.015 23.609,55.851 C23.363,59.367 22.727,62.771 21.602,66.118 C20.376,69.765 18.677,73.296 16.728,76.612 C15.993,77.861 12.129,77.571 10.824,77.525 C9.462,77.478 8.064,77.293 6.74,76.954 C7.119,77.294 7.499,77.633 7.876,77.975 C5.782,74.647 4.607,70.653 3.38,66.946 C2.381,63.931 1.519,61.134 1.267,57.942 C0.949,53.947 1.286,49.844 1.929,45.897 C2.379,43.149 3.853,40.471 4.981,37.958 C6.122,35.412 7.431,32.992 8.063,30.257 C9.038,26.041 8.688,21.519 8.042,17.279 C7.558,14.108 6.701,11.089 6.821,7.833 C6.945,4.615 9.925,2.346 12.876,1.872 C12.977,1.855 13.078,1.844 13.181,1.835 C13.497,1.808 12.501,0.2 11.975,0.241 L11.975,0.241 Z" id="path415"></path>
                    </g>
                </g>
            </g>
            <g id="g417" transform="translate(49.055640, 40.382120)" fill="#2e2e2c" sketch:type="MSShapeGroup">
                <path d="M9.094,0.154 C4.887,-0.512 1.873,-0.429 -0.207,-0.115 L-0.008,4.601 C3.169,3.774 6.42,3.964 9.03,4.423 C8.896,3.201 8.977,1.513 9.094,0.154 L9.094,0.154 Z" id="path419"></path>
            </g>
            <g id="g421" transform="translate(47.055640, 46.382120)" fill="#2e2e2c" sketch:type="MSShapeGroup">
                <path d="M11.282,0.367 C6.621,-0.353 3.428,-0.155 1.375,0.256 L0.248,5.551 C4.507,3.743 9.212,4.169 12.501,4.884 L11.282,0.367 L11.282,0.367 Z" id="path423"></path>
            </g>
            <g id="g425" transform="translate(50.055640, 37.382120)" fill="#FFFFFF" sketch:type="MSShapeGroup">
                <path d="M1.895,16.209 L1.388,8.084 L1.989,0.791 L0.681,0.043 L0.5,8.081 L0.306,16.863 L1.895,16.209 Z" id="polygon427"></path>
            </g>
            <g id="g429" transform="translate(80.055640, 30.382120)" sketch:type="MSShapeGroup">
                <g id="g431" transform="translate(1.000000, 1.000000)" fill="#FFFFFF">
                    <path d="M10.626,0.072 C10.626,0.072 5.936,0.395 5.046,5.005 C5.046,5.005 4.805,7.672 5.532,10.746 C5.532,10.746 8.12,20.934 5.207,27.562 C5.207,27.562 1.164,36.052 0.841,37.994 C0.841,37.994 -0.696,46.32 0.758,52.468 C0.758,52.468 3.834,62.979 6.097,66.455 C6.097,66.455 10.707,67.668 14.67,66.375 C14.67,66.375 19.439,58.613 20.408,51.578 C20.408,51.578 21.624,44.14 20.327,38.803 C20.327,38.803 17.577,31.768 14.91,25.057 C14.91,25.057 14.02,21.014 14.749,15.677 C14.749,15.677 16.689,7.511 15.638,3.63 C15.638,3.629 14.021,0.314 10.626,0.072 L10.626,0.072 Z" id="path433"></path>
                </g>
                <g id="g435" fill="#2E2E2C">
                    <g id="g437">
                        <path d="M11.024,0.275 C8.379,0.495 6.269,2.268 5.459,4.756 C4.594,7.42 5.787,10.625 6.266,13.298 C7.064,17.725 7.276,22.494 5.896,26.823 C5.045,29.492 3.536,32.016 2.457,34.599 C1.416,37.087 0.916,39.242 0.648,41.917 C0.266,45.722 0.138,49.847 1.253,53.548 C2.257,56.87 3.363,60.171 4.672,63.392 C5.224,64.751 5.812,66.251 6.707,67.435 C7.425,68.382 8.365,68.418 9.482,68.581 C11.493,68.88 13.718,68.911 15.686,68.34 C16.688,68.049 16.878,67.258 17.372,66.349 C19.388,62.638 21.052,58.662 21.918,54.519 C22.584,51.339 22.727,47.977 22.604,44.744 C22.475,41.299 21.339,38.609 20.096,35.448 C18.645,31.754 16.619,28.051 16.274,24.063 C15.974,20.576 16.56,17.372 17.128,13.981 C17.563,11.379 18.503,7.187 17.111,4.738 C15.819,2.466 13.67,0.602 11.024,0.275 C10.818,0.25 11.66,1.797 12.228,1.868 C19.344,2.745 15.307,12.948 14.859,17.544 C14.625,19.933 14.35,23.328 15.27,25.647 C16.95,29.872 18.619,34.102 20.276,38.336 C21.456,41.348 21.297,44.848 21.103,48.027 C20.92,51.044 20.413,53.977 19.486,56.859 C18.431,60.144 16.904,63.316 15.168,66.293 C14.527,67.393 11.614,67.178 10.46,67.17 C9.14,67.158 7.777,66.982 6.496,66.658 C6.873,66.998 7.251,67.338 7.631,67.679 C5.793,64.742 4.765,61.227 3.688,57.959 C2.782,55.214 2.075,52.707 1.896,49.784 C1.697,46.466 1.982,43.063 2.542,39.789 C2.973,37.259 4.4,34.761 5.449,32.448 C6.507,30.111 7.559,27.986 8.009,25.423 C8.641,21.814 8.281,18.023 7.669,14.438 C7.227,11.858 6.552,9.352 6.765,6.699 C6.977,4.062 9.76,2.072 12.229,1.867 C12.546,1.841 11.55,0.231 11.024,0.275 L11.024,0.275 Z" id="path439"></path>
                    </g>
                </g>
            </g>
            <g id="g441" transform="translate(87.055640, 48.382120)" fill="#2e2e2c" sketch:type="MSShapeGroup">
                <path d="M8.536,0.479 C4.896,-0.098 2.286,-0.025 0.486,0.246 L0.658,4.329 C3.407,3.61 6.221,3.775 8.477,4.173 C8.361,3.114 8.434,1.655 8.536,0.479 L8.536,0.479 Z" id="path443"></path>
            </g>
            <g id="g445" transform="translate(86.055640, 53.382120)" fill="#2e2e2c" sketch:type="MSShapeGroup">
                <path d="M9.698,0.854 C5.664,0.234 2.901,0.403 1.126,0.757 L0.148,5.34 C3.836,3.775 7.904,4.143 10.752,4.763 L9.698,0.854 L9.698,0.854 Z" id="path447"></path>
            </g>
            <g id="g449" transform="translate(89.055640, 46.382120)" fill="#FFFFFF" sketch:type="MSShapeGroup">
                <path d="M1.171,13.775 L0.732,6.746 L1.25,0.435 L0.12,-0.213 L-0.037,6.742 L-0.204,14.342 L1.171,13.775 Z" id="polygon451"></path>
            </g>
            <g id="g453" transform="translate(67.055640, 20.382120)" sketch:type="MSShapeGroup">
                <g id="g455" fill="#FFFFFF">
                    <path d="M12.399,0.377 C12.399,0.377 6.983,0.752 5.952,6.079 C5.952,6.079 5.672,9.161 6.514,12.713 C6.514,12.713 9.505,24.485 6.141,32.148 C6.141,32.148 1.467,41.958 1.096,44.2 C1.096,44.2 -0.68,53.825 1.001,60.927 C1.001,60.927 4.55,73.074 7.168,77.092 C7.168,77.092 12.494,78.493 17.071,76.999 C17.071,76.999 22.585,68.028 23.708,59.899 C23.708,59.899 25.107,51.303 23.61,45.135 C23.61,45.135 20.436,37.005 17.352,29.252 C17.352,29.252 16.324,24.58 17.165,18.412 C17.165,18.412 19.406,8.974 18.192,4.489 C18.193,4.488 16.324,0.657 12.399,0.377 L12.399,0.377 Z" id="path457"></path>
                </g>
                <g id="g459" fill="#2E2E2C">
                    <g id="g461">
                        <path d="M11.798,-0.419 C9.369,-0.223 7.145,1.208 5.948,3.311 C4.432,5.986 5.268,9.763 5.91,12.556 C6.738,16.159 7.101,19.893 6.999,23.585 C6.897,27.19 5.926,30.334 4.436,33.552 C3.064,36.519 1.633,39.515 0.609,42.624 C-0.243,45.211 -0.273,48.236 -0.398,50.919 C-0.741,58.337 1.452,64.98 4.189,71.782 C4.967,73.714 5.953,77.499 8.308,78.009 C10.295,78.438 12.336,78.548 14.359,78.427 C15.887,78.333 17.453,78.319 18.233,76.959 C22.161,70.122 24.568,62.841 24.968,54.966 C25.157,51.222 25.007,47.471 23.631,43.964 C22.802,41.845 21.97,39.724 21.133,37.605 C20.66,36.406 20.186,35.205 19.71,34.007 C19.173,32.642 18.323,31.152 18.032,29.716 C17.315,26.201 17.225,22.093 17.999,18.597 C18.779,15.061 19.353,11.399 19.257,7.769 C19.148,3.686 15.939,0.071 11.798,-0.419 C11.591,-0.442 12.436,1.106 13.003,1.173 C21.208,2.144 17.002,13.283 16.35,18.513 C16.033,21.047 16.054,23.628 16.289,26.169 C16.367,27.013 16.395,28.038 16.715,28.839 C18.653,33.718 20.576,38.599 22.489,43.485 C23.914,47.122 23.703,51.354 23.433,55.19 C23.187,58.705 22.552,62.107 21.427,65.457 C20.201,69.103 18.501,72.634 16.552,75.951 C15.818,77.2 11.952,76.908 10.65,76.863 C9.287,76.817 7.887,76.63 6.565,76.292 C6.942,76.632 7.322,76.973 7.7,77.313 C5.607,73.983 4.431,69.992 3.202,66.284 C2.205,63.27 1.343,60.472 1.092,57.28 C0.774,53.284 1.109,49.181 1.752,45.234 C2.203,42.487 3.677,39.807 4.805,37.296 C5.946,34.751 7.255,32.329 7.887,29.594 C8.865,25.377 8.512,20.855 7.866,16.617 C7.38,13.444 6.523,10.427 6.644,7.169 C6.767,3.95 9.745,1.683 12.699,1.208 C12.798,1.191 12.902,1.181 13.003,1.171 C13.32,1.147 12.325,-0.461 11.798,-0.419 L11.798,-0.419 Z" id="path463"></path>
                    </g>
                </g>
            </g>
            <g id="g465" transform="translate(75.055640, 40.382120)" fill="#2E2E2C" sketch:type="MSShapeGroup">
                <path d="M8.918,0.492 C4.711,-0.173 1.698,-0.088 -0.383,0.225 L-0.184,4.939 C2.992,4.113 6.242,4.304 8.851,4.763 C8.718,3.54 8.801,1.853 8.918,0.492 L8.918,0.492 Z" id="path467"></path>
            </g>
            <g id="g469" transform="translate(73.055640, 46.382120)" fill="#2E2E2C" sketch:type="MSShapeGroup">
                <path d="M11.107,0.706 C6.445,-0.013 3.253,0.185 1.2,0.596 L0.071,5.889 C4.331,4.082 9.035,4.508 12.324,5.223 L11.107,0.706 L11.107,0.706 Z" id="path471"></path>
            </g>
            <g id="g473" transform="translate(76.055640, 37.382120)" fill="#FFFFFF" sketch:type="MSShapeGroup">
                <path d="M1.719,16.547 L1.215,8.425 L1.813,1.13 L0.505,0.382 L0.326,8.42 L0.129,17.203 L1.719,16.547 Z" id="polygon475"></path>
            </g>
            <g id="g477" transform="translate(51.055640, 11.382120)" sketch:type="MSShapeGroup">
                <g id="g479" transform="translate(1.000000, 1.000000)" fill="#FFFFFF">
                    <path d="M13.148,-0.065 C13.148,-0.065 7.117,0.35 5.973,6.281 C5.973,6.281 5.661,9.713 6.595,13.664 C6.595,13.664 9.924,26.768 6.181,35.296 C6.181,35.296 0.98,46.215 0.564,48.711 C0.564,48.711 -1.412,59.423 0.46,67.328 C0.46,67.328 4.413,80.847 7.324,85.32 C7.324,85.32 13.252,86.879 18.347,85.216 C18.347,85.216 24.485,75.233 25.732,66.184 C25.732,66.184 27.293,56.618 25.628,49.752 C25.628,49.752 22.09,40.703 18.658,32.071 C18.658,32.071 17.515,26.872 18.452,20.008 C18.452,20.008 20.947,9.503 19.597,4.512 C19.598,4.512 17.517,0.247 13.148,-0.065 L13.148,-0.065 Z" id="path481"></path>
                </g>
                <g id="g483" fill="#2E2E2C">
                    <g id="g485">
                        <path d="M13.547,0.138 C11.277,0.32 9.102,1.52 7.686,3.275 C5.355,6.169 6.077,10.816 6.901,14.109 C8.561,20.724 9.429,29.336 6.43,35.668 C4.261,40.239 1.421,45.146 0.657,50.195 C-0.428,57.356 -0.343,64.397 1.855,71.304 C3.009,74.941 4.255,78.557 5.748,82.07 C6.679,84.266 7.482,86.862 10.019,87.349 C12.179,87.766 14.391,87.86 16.581,87.691 C18.045,87.577 19.71,87.563 20.476,86.243 C22.466,82.802 24.145,79.17 25.506,75.436 C26.771,71.958 27.476,68.382 27.836,64.713 C28.05,62.53 28.134,60.336 28.107,58.146 C28.08,56.036 28.104,53.303 27.321,51.303 C25.944,47.775 24.557,44.25 23.169,40.729 C22.266,38.44 20.835,35.95 20.343,33.552 C20.015,31.953 19.904,30.309 19.832,28.683 C19.556,22.414 21.608,16.475 21.716,10.231 C21.757,7.976 21.54,6.147 20.227,4.329 C18.618,2.11 16.303,0.448 13.547,0.138 C13.337,0.116 14.186,1.668 14.751,1.731 C16.935,1.977 18.73,3.059 19.876,4.943 C20.669,6.251 20.301,8.898 20.228,10.366 C20.067,13.649 19.498,16.941 18.775,20.143 C17.932,23.87 18.233,28.197 18.855,31.95 C19.143,33.675 20.091,35.351 20.733,36.969 C21.877,39.86 23.016,42.755 24.154,45.652 C25.566,49.253 26.498,52.176 26.655,56.141 C26.792,59.573 26.551,63.075 26.018,66.467 C25.219,71.57 23.355,76.383 21.08,80.996 C20.433,82.316 19.73,83.613 18.993,84.889 C18.117,86.405 14.982,86.164 13.412,86.187 C11.522,86.213 9.555,85.995 7.722,85.524 C8.102,85.864 8.48,86.204 8.859,86.545 C5.572,81.338 3.882,74.774 2.165,68.899 C0.777,64.167 1.269,58.598 1.809,53.762 C2.068,51.44 2.481,49.436 3.338,47.258 C4.597,44.058 6.054,40.932 7.514,37.819 C9.057,34.53 9.598,31.015 9.676,27.4 C9.754,23.722 9.299,20.005 8.563,16.406 C7.936,13.344 7.066,9.975 7.973,6.894 C8.821,4.013 11.829,1.965 14.753,1.73 C15.069,1.706 14.076,0.098 13.547,0.138 L13.547,0.138 Z" id="path487"></path>
                    </g>
                </g>
            </g>
            <g id="g489" transform="translate(60.055640, 34.382120)" fill="#2E2E2C" sketch:type="MSShapeGroup">
                <path d="M10.176,0.323 C5.494,-0.417 2.14,-0.323 -0.177,0.026 L0.049,5.276 C3.582,4.354 7.201,4.566 10.104,5.078 C9.953,3.716 10.047,1.837 10.176,0.323 L10.176,0.323 Z" id="path491"></path>
            </g>
            <g id="g493" transform="translate(58.055640, 41.382120)" fill="#2E2E2C" sketch:type="MSShapeGroup">
                <path d="M12.386,0.24 C7.198,-0.561 3.648,-0.34 1.361,0.115 L0.105,6.01 C4.848,3.997 10.082,4.472 13.746,5.268 L12.386,0.24 L12.386,0.24 Z" id="path495"></path>
            </g>
            <g id="g497" transform="translate(62.055640, 31.382120)" fill="#FFFFFF" sketch:type="MSShapeGroup">
                <path d="M1.276,17.854 L0.714,8.812 L1.38,0.696 L-0.075,-0.138 L-0.273,8.809 L-0.492,18.583 L1.276,17.854 Z" id="polygon499"></path>
            </g>
        </g>
        <g id="logo" sketch:type="MSLayerGroup" transform="translate(35.000000, 43.000000)">
            <!--
            The MIT License (MIT)

            Copyright (c) 2011 Christopher Williams <chris@iterativedesigns.com>,
                                 Manuel Strehl <boldewyn@gmail.com>

            Permission is hereby granted, free of charge, to any person obtaining a copy
            of this software and associated documentation files (the "Software"), to deal
            in the Software without restriction, including without limitation the rights
            to use, copy, modify, merge, publish, distribute, sublicense, and/or sell
            copies of the Software, and to permit persons to whom the Software is
            furnished to do so, subject to the following conditions:

            The above copyright notice and this permission notice shall be included in
            all copies or substantial portions of the Software.

            THE SOFTWARE IS PROVIDED "AS IS", WITHOUT WARRANTY OF ANY KIND, EXPRESS OR
            IMPLIED, INCLUDING BUT NOT LIMITED TO THE WARRANTIES OF MERCHANTABILITY,
            FITNESS FOR A PARTICULAR PURPOSE AND NONINFRINGEMENT. IN NO EVENT SHALL THE
            AUTHORS OR COPYRIGHT HOLDERS BE LIABLE FOR ANY CLAIM, DAMAGES OR OTHER
            LIABILITY, WHETHER IN AN ACTION OF CONTRACT, TORT OR OTHERWISE, ARISING FROM,
            OUT OF OR IN CONNECTION WITH THE SOFTWARE OR THE USE OR OTHER DEALINGS IN
            THE SOFTWARE.
            -->
            <rect id="border" fill="#2E2E2C" sketch:type="MSShapeGroup" x="0" y="0" width="42" height="42"></rect>
            <rect id="background" fill="#F3DF49" sketch:type="MSShapeGroup" x="1" y="1" width="40" height="40"></rect>
            <path d="M11.5174603,34.4269048 L14.5785714,32.5743651 C15.169127,33.6214286 15.7063492,34.5073016 16.9949206,34.5073016 C18.2300794,34.5073016 19.0088095,34.0241429 19.0088095,32.1447619 L19.0088095,19.3638095 L22.7677778,19.3638095 L22.7677778,32.1979365 C22.7677778,36.0912698 20.4856349,37.8634127 17.1560317,37.8634127 C14.1489683,37.8634127 12.4034921,36.3060317 11.5174603,34.4265873" id="j" fill="#2E2E2C" sketch:type="MSShapeGroup"></path>
            <path d="M24.8095238,34.024127 L27.8702381,32.2519841 C28.6759524,33.5677778 29.7230952,34.5343651 31.5757143,34.5343651 C33.133254,34.5343651 34.1264286,33.7556508 34.1264286,32.6815873 C34.1264286,31.3927778 33.1061905,30.9362698 31.3876984,30.1846825 L30.4481746,29.7816667 C27.7361111,28.6273016 25.9370635,27.177381 25.9370635,24.1164286 C25.9370635,21.2971429 28.0850794,19.1489683 31.4415079,19.1489683 C33.8311905,19.1489683 35.5496032,19.9814286 36.7846032,22.1563492 L33.8578571,24.0357937 C33.2134127,22.8813492 32.5154762,22.4249206 31.4415079,22.4249206 C30.3406349,22.4249206 29.6424603,23.1230159 29.6424603,24.0357937 C29.6424603,25.1635714 30.3406349,25.6200794 31.9515079,26.318254 L32.8911905,26.7209524 C36.0864286,28.0903968 37.8854762,29.4865079 37.8854762,32.6278571 C37.8854762,36.0111905 35.2273016,37.8637302 31.6562698,37.8637302 C28.1657143,37.8637302 25.9102381,36.199127 24.8095238,34.024127" id="s" fill="#2E2E2C" sketch:type="MSShapeGroup"></path>
        </g>
    </g>
</svg>
