<?xml version="1.0" encoding="UTF-8" standalone="no"?>
<svg width="400px" height="298px" viewBox="0 0 400 298" version="1.1" xmlns="http://www.w3.org/2000/svg" xmlns:xlink="http://www.w3.org/1999/xlink" xmlns:sketch="http://www.bohemiancoding.com/sketch/ns">
    <!-- Generator: Sketch 3.1 (8751) - http://www.bohemiancoding.com/sketch -->
    <title>bowlingjs logo</title>
    <desc>Created with Sketch by Alan Shaw (http://github.com/alanshaw), with love.</desc>
    <defs></defs>
    <g id="Page-1" stroke="none" stroke-width="1" fill="none" fill-rule="evenodd" sketch:type="MSPage">
        <g id="bowlingjs" sketch:type="MSLayerGroup">
            <g id="Page-1" sketch:type="MSShapeGroup">
                <g id="bowling-pins">
                    <g id="g3" transform="translate(246.783880, 1.150220)">
                        <g id="g5">
                            <path d="M121.040602,47.9990707 L20.5142857,153.223172 L11.7894737,156.829273 L1.35037594,146.652121 L0.192481203,132.814687 L81.7293233,1.38163636 L98.6646617,11.7725051 L118.46015,4.07567677 L114.796992,23.9784646 L129.17594,40.0674545 L121.040602,47.9990707 L121.040602,47.9990707 Z" id="polygon7" fill="#F3DF49"></path>
                            <path d="M11.6571429,157.557717 L0.751879699,146.938081 L-0.442105263,132.664182 L-0.330827068,132.489596 L81.5338346,0.526767677 L98.718797,11.0831919 L119.278195,3.09739394 L115.470677,23.7948485 L130.039098,40.1005657 L121.476692,48.4385455 L20.8721805,153.746929 L11.6571429,157.557717 L11.6571429,157.557717 Z M1.94285714,146.375192 L11.9338346,156.091798 L20.1473684,152.699414 L120.589474,47.5686263 L128.306767,40.0463838 L114.126316,24.168101 L117.642105,5.0629899 L98.5864662,12.4648283 L81.9308271,2.23951515 L0.821052632,132.977232 L1.94285714,146.375192 L1.94285714,146.375192 Z" id="path9" fill="#FFFFFF"></path>
                        </g>
                    </g>
                    <path d="M246.296662,132.821068 L248.272602,146.035412 L314.432,40.4380582 L331.65606,25.384543 L326.777865,3.52518949" id="polyline11" fill="#F6CC1E"></path>
                    <path d="M344.756812,62.3636339 L336.254556,44.3572097 L253.033504,150.818462 L256.522226,157.028301 L344.756812,62.3636339 L344.756812,62.3636339 Z" id="polygon13" fill="#F6CC1E"></path>
                    <g id="g15" transform="translate(246.783880, 1.150220)">
                        <g id="g17" transform="translate(3.007519, 39.131313)" fill="#2E2E2C">
                            <g id="g19">
                                <path d="M0.941353383,111.211192 L3.37142857,113.089495 L88.0240602,3.03719192 L85.5789474,1.16189899 L0.941353383,111.211192 L0.941353383,111.211192 Z" id="polygon21"></path>
                            </g>
                        </g>
                        <g id="g23" transform="translate(0.000000, 36.121212)" fill="#2E2E2C">
                            <g id="g25">
                                <path d="M0.0721804511,110.25398 L2.69473684,111.861374 L69.518797,2.66393939 L66.8932331,1.05353535 L0.0721804511,110.25398 L0.0721804511,110.25398 Z" id="polygon27"></path>
                            </g>
                        </g>
                        <g id="g29" transform="translate(9.022556, 60.202020)" fill="#2E2E2C">
                            <g id="g31">
                                <path d="M0.715789474,95.6760606 L2.98646617,97.7470101 L90.4481203,1.58331313 L88.1744361,-0.487636364 L0.715789474,95.6760606 L0.715789474,95.6760606 Z" id="polygon33"></path>
                            </g>
                        </g>
                        <g id="g35">
                            <g id="g37" transform="translate(3.007519, 3.010101)" fill="#E2001A">
                                <path d="M76.9864361,-0.635131313 L-1.37747368,128.14903" id="line39"></path>
                            </g>
                            <g id="g41" fill="#2E2E2C">
                                <path d="M-0.487218045,131.670848 L2.13834586,133.278242 L82.1082707,1.86325253 L79.4827068,0.261878788 L-0.487218045,131.670848 L-0.487218045,131.670848 Z" id="polygon43"></path>
                            </g>
                        </g>
                        <g id="g45" transform="translate(0.000000, 39.131313)" fill="#2E2E2C">
                            <g id="g47">
                                <path d="M131.350376,0.897010101 L129.12782,-1.24016162 L128.066165,-0.126424242 L19.6300752,112.797515 L12.1443609,115.882869 L2.86616541,106.852566 L2.26766917,91.2150909 L-0.812030075,91.3264646 L-0.159398496,108.201091 L11.4496241,119.50101 L21.3954887,115.395232 L21.6180451,115.160444 L131.350376,0.897010101 L131.350376,0.897010101 Z" id="polygon49"></path>
                            </g>
                        </g>
                        <g id="g51" transform="translate(66.165414, 0.000000)" fill="#2E2E2C">
                            <g id="g53">
                                <path d="M31.5458647,62.6161212 C31.7022556,62.670303 31.8706767,62.7094343 32.0421053,62.7124444 C32.6255639,62.7274949 33.1669173,62.4114343 33.443609,61.893697 L43.1819549,43.4688687 L63.8706767,41.0547677 C64.4481203,40.9885455 64.9383459,40.5942222 65.1428571,40.0433737 C65.3353383,39.4895152 65.2090226,38.8754545 64.8,38.4570505 L50.3037594,23.4878182 L54.4030075,3.05224242 C54.5172932,2.47731313 54.2917293,1.89034343 53.8285714,1.52913131 C53.3684211,1.17694949 52.7458647,1.11072727 52.2195489,1.36959596 L33.5157895,10.5443838 L15.3684211,0.322080808 C14.8451128,0.0301010101 14.2225564,0.0632121212 13.7383459,0.391313131 C13.2571429,0.728444444 13.0045113,1.30036364 13.0947368,1.88131313 L13.0947368,1.88131313 L16.0300752,22.5185657 L0.706766917,36.6359394 C0.276691729,37.0362828 0.108270677,37.6413131 0.276691729,38.2072121 C0.436090226,38.7670909 0.914285714,39.1885051 1.48270677,39.2848283 L22,42.8638384 L30.6887218,61.8094141 C30.8601504,62.1886869 31.1729323,62.4746465 31.5458647,62.6161212 L31.5458647,62.6161212 L31.5458647,62.6161212 Z M60.4180451,38.3547071 L42.0270677,40.5069293 C41.524812,40.5611111 41.0827068,40.8681414 40.8421053,41.3166465 L32.1804511,57.691596 L24.4631579,40.8500808 C24.2466165,40.3865253 23.8315789,40.0584242 23.3233083,39.9741414 L5.07669173,36.7864444 L18.7067669,24.2343232 C19.0766917,23.8881616 19.2601504,23.3854747 19.1819549,22.885798 L16.5744361,4.53622222 L32.7067669,13.6207071 C33.1458647,13.8645253 33.6932331,13.885596 34.1443609,13.6598384 L50.7729323,5.50547475 L47.1308271,23.6744444 C47.0255639,24.1771313 47.1819549,24.6828283 47.5338346,25.0500606 L60.4180451,38.3547071 L60.4180451,38.3547071 Z" id="path55"></path>
                            </g>
                        </g>
                    </g>
                    <g id="g57" transform="translate(264.828992, 79.412846)">
                        <g id="g59">
                            <path d="M116.81203,45.6030303 L16.3879699,116.475859 L8.58045113,118.041111 L1.57593985,107.909111 L2.85714286,96.254 L91.7864662,0.571919192 L104.132331,11.9350505 L121.789474,8.78046465 L115.52782,24.6828283 L124.827068,40.3564242 L116.81203,45.6030303 L116.81203,45.6030303 Z" id="polygon61" fill="#F3DF49"></path>
                            <path d="M8.33684211,118.622061 L1.02556391,108.044566 L2.3518797,96.0222222 L2.47218045,95.895798 L91.7593985,-0.171575758 L104.288722,11.3721616 L122.622556,8.10018182 L116.108271,24.6316566 L125.545865,40.5219798 L117.088722,46.0394949 L16.6045113,116.963495 L8.33684211,118.622061 L8.33684211,118.622061 Z M2.11428571,107.776667 L8.81804511,117.460162 L16.1714286,115.985212 L116.505263,45.1725859 L124.114286,40.1938788 L114.938346,24.7279798 L120.959398,9.46074747 L103.957895,12.5039596 L91.8105263,1.31240404 L3.35037594,96.4857778 L2.11428571,107.776667 L2.11428571,107.776667 Z" id="path63" fill="#FFFFFF"></path>
                        </g>
                    </g>
                    <path d="M267.319218,174.607291 L266.801925,185.883129 L338.789895,109.113513 L355.505684,99.4390481 L355.018466,80.5295935" id="polyline65" fill="#F6CC1E"></path>
                    <path d="M360.368842,132.225068 L356.239519,115.910321 L269.977865,190.621028 L271.854556,196.33721 L360.368842,132.225068 L360.368842,132.225068 Z" id="polygon67" fill="#F6CC1E"></path>
                    <g id="g69" transform="translate(264.828992, 79.412846)">
                        <g id="g71" transform="translate(3.007519, 33.111111)" fill="#2E2E2C">
                            <g id="g73">
                                <path d="M0.114285714,78.283697 L1.83157895,80.2312323 L89.8676692,2.78434343 L88.1533835,0.830787879 L0.114285714,78.283697 L0.114285714,78.283697 Z" id="polygon75"></path>
                            </g>
                        </g>
                        <g id="g77" transform="translate(0.000000, 27.090909)" fill="#2E2E2C">
                            <g id="g79">
                                <path d="M0.559398496,80.3817374 L2.47218045,82.1426465 L75.593985,2.49236364 L73.6721805,0.740484848 L0.559398496,80.3817374 L0.559398496,80.3817374 Z" id="polygon81"></path>
                            </g>
                        </g>
                        <g id="g83" transform="translate(6.015038, 51.171717)" fill="#2E2E2C">
                            <g id="g85">
                                <path d="M1.01052632,65.7526465 L2.56842105,67.8326263 L90.6676692,2.35389899 L89.124812,0.264888889 L1.01052632,65.7526465 L1.01052632,65.7526465 Z" id="polygon87"></path>
                            </g>
                        </g>
                        <g id="g89" transform="translate(3.007519, 0.000000)">
                            <g id="g91" fill="#E2001A">
                                <path d="M87.181985,1.11674747 L1.30827068,95.1131416" id="line93"></path>
                            </g>
                            <g id="g95" fill="#2E2E2C">
                                <path d="M-0.517293233,95.1944444 L1.38947368,96.9523434 L89.0165414,1.02945455 L87.0947368,-0.725434343 L-0.517293233,95.1944444 L-0.517293233,95.1944444 Z" id="polygon97"></path>
                            </g>
                        </g>
                        <g id="g99" transform="translate(0.000000, 39.131313)" fill="#2E2E2C">
                            <g id="g101">
                                <path d="M126.634586,1.54719192 L125.145865,-0.586969697 L124.081203,0.162545455 L15.8676692,76.1224444 L9.16090226,77.4679596 L2.93533835,68.4677576 L4.98045113,55.4099394 L2.41503759,55.0035758 L0.210526316,69.0968687 L7.99699248,80.3486263 L16.9052632,78.5606263 L17.1338346,78.4101212 L126.634586,1.54719192 L126.634586,1.54719192 Z" id="polygon103"></path>
                            </g>
                        </g>
                        <g id="g105" transform="translate(72.180451, 0.000000)" fill="#2E2E2C">
                            <g id="g107">
                                <path d="M22.9142857,53.9319798 C23.0285714,53.9951919 23.1639098,54.0553939 23.3082707,54.0854949 C23.7894737,54.1938586 24.2827068,54.0222828 24.6015038,53.64 L35.675188,39.9530707 L53.2090226,41.3136364 C53.7022556,41.3527677 54.1684211,41.1059394 54.4180451,40.6785051 C54.6796992,40.2540808 54.6646617,39.724303 54.393985,39.305899 L44.8090226,24.5473737 L51.5218045,8.27476768 C51.7112782,7.81723232 51.6240602,7.29046465 51.3022556,6.92022222 C50.9684211,6.5499798 50.4631579,6.39044444 49.9849624,6.51686869 L32.9984962,11.086202 L19.6030075,-0.334121212 C19.2270677,-0.662222222 18.7097744,-0.740484848 18.2496241,-0.538808081 C17.7954887,-0.340141414 17.4947368,0.0933131313 17.4676692,0.589979798 L17.4676692,0.589979798 L16.556391,18.1689697 L1.56390977,27.3798788 C1.13984962,27.6387475 0.902255639,28.1173535 0.95037594,28.6140202 C1.00150376,29.1016566 1.31428571,29.5260808 1.77744361,29.7036768 L18.2045113,36.0068283 L22.3308271,53.1192525 C22.4090226,53.4593939 22.6225564,53.7513737 22.9142857,53.9319798 L22.9142857,53.9319798 L22.9142857,53.9319798 Z M50.7849624,38.5112323 L35.1879699,37.3041818 C34.7548872,37.2680606 34.3428571,37.4486667 34.0721805,37.7797778 L24.237594,49.9466061 L20.5654135,34.7275354 C20.4601504,34.3091313 20.1684211,33.9750101 19.7684211,33.8214949 L5.16691729,28.2166869 L18.4962406,20.0231919 C18.8661654,19.7944242 19.0917293,19.4031111 19.112782,18.981697 L19.9278195,3.34723232 L31.8315789,13.5033131 C32.1503759,13.7772323 32.6015038,13.8825859 33.0105263,13.768202 L48.1263158,9.71058586 L42.1503759,24.1801414 C41.9819549,24.5774747 42.0240602,25.0199596 42.2616541,25.3841818 L50.7849624,38.5112323 L50.7849624,38.5112323 Z" id="path109"></path>
                            </g>
                        </g>
                    </g>
                    <g id="g111" transform="translate(279.866586, 139.614866)">
                        <g id="g113">
                            <path d="M107.503759,43.0384242 L10.4932331,82.4316162 L3.70526316,82.217899 L-0.15037594,72.4501212 L3.16691729,63.0285051 L95.437594,0.830787879 L103.491729,12.6544646 L118.754887,13.4461212 L110.484211,25.4353535 L115.169925,40.2360202 L107.503759,43.0384242 L107.503759,43.0384242 Z" id="polygon115" fill="#F3DF49"></path>
                            <path d="M3.39548872,82.6603838 L-0.634586466,72.4591515 L2.79699248,62.7455556 L2.91729323,62.6612727 L95.5578947,0.20769697 L103.729323,12.2149899 L119.581955,13.0427677 L110.983459,25.4985657 L115.738346,40.5129495 L107.657143,43.4568283 L10.5804511,82.8710909 L3.39548872,82.6603838 L3.39548872,82.6603838 Z M0.330827068,72.4471111 L4.01804511,81.7844444 L10.4030075,81.9740808 L107.335338,42.6260404 L114.619549,39.9651111 L109.990977,25.3540808 L117.936842,13.8554949 L103.239098,13.0849091 L95.3203008,1.44484848 L3.53684211,63.3144646 L0.330827068,72.4471111 L0.330827068,72.4471111 Z" id="path117" fill="#FFFFFF"></path>
                        </g>
                    </g>
                    <path d="M282.925233,201.695189 L280.320722,210.95727 L354.886135,161.17321 L370.630496,156.369088 L373.875609,140.590139" id="polyline119" fill="#F6CC1E"></path>
                    <path d="M368.326737,184.519553 L368.05606,170.185452 L282.047038,215.496503 L282.50418,220.604644 L368.326737,184.519553 L368.326737,184.519553 Z" id="polygon121" fill="#F6CC1E"></path>
                    <g id="g123" transform="translate(279.866586, 139.614866)">
                        <g id="g125" transform="translate(0.000000, 27.090909)" fill="#2E2E2C">
                            <g id="g127">
                                <path d="M0.466165414,48.5499192 L1.5037594,50.5064848 L89.524812,3.26294949 L88.4721805,1.30939394 L0.466165414,48.5499192 L0.466165414,48.5499192 Z" id="polygon129"></path>
                            </g>
                        </g>
                        <g id="g131" transform="translate(0.000000, 21.070707)" fill="#2E2E2C">
                            <g id="g133">
                                <path d="M-0.911278195,50.8315758 L0.336842105,52.6587071 L76.3969925,0.704363636 L75.1398496,-1.11674747 L-0.911278195,50.8315758 L-0.911278195,50.8315758 Z" id="polygon135"></path>
                            </g>
                        </g>
                        <g id="g137" transform="translate(3.007519, 45.151515)" fill="#2E2E2C">
                            <g id="g139">
                                <path d="M-0.369924812,35.8382626 L0.508270677,37.8670707 L86.2736842,0.568909091 L85.3894737,-1.45688889 L-0.369924812,35.8382626 L-0.369924812,35.8382626 Z" id="polygon141"></path>
                            </g>
                        </g>
                        <g id="g143" transform="translate(3.007519, 0.000000)">
                            <g id="g145" transform="translate(3.007519, 0.000000)" fill="#E2001A">
                                <path d="M87.993985,0.975302828 L-1.41948872,62.3662527" id="line147"></path>
                            </g>
                            <g id="g149" fill="#2E2E2C">
                                <path d="M0.0511278195,62.0803232 L1.30526316,63.9044444 L92.5383459,1.25521212 L91.2842105,-0.571919192 L0.0511278195,62.0803232 L0.0511278195,62.0803232 Z" id="polygon151"></path>
                            </g>
                        </g>
                        <g id="g153" transform="translate(0.000000, 39.131313)" fill="#2E2E2C">
                            <g id="g155">
                                <path d="M116.619549,1.72478788 L115.786466,-0.337131313 L114.769925,0.0752525253 L10.2917293,42.1865657 L4.46616541,41.9999394 L1.03759398,33.3278384 L5.25714286,22.8918182 L3.20601504,22.052 L-1.3443609,33.3218182 L2.94135338,44.1702222 L10.6857143,44.4080202 L10.9052632,44.3297576 L116.619549,1.72478788 L116.619549,1.72478788 Z" id="polygon157"></path>
                            </g>
                        </g>
                        <g id="g159" transform="translate(75.187970, 0.000000)" fill="#2E2E2C">
                            <g id="g161">
                                <path d="M12.6947368,45.7565455 C12.7729323,45.8257778 12.8781955,45.8980202 12.9894737,45.9552121 C13.3684211,46.1388283 13.8135338,46.0906667 14.1473684,45.831798 L25.9819549,36.6148687 L40.2676692,41.1360404 C40.6736842,41.2684848 41.1067669,41.1480808 41.4015038,40.8470707 C41.6992481,40.5460606 41.7894737,40.1005657 41.6451128,39.7002222 L36.5413534,25.6009091 L45.2541353,13.3889293 C45.5067669,13.0487879 45.5338346,12.5942626 45.3323308,12.2240202 C45.1368421,11.8477576 44.7368421,11.622 44.3157895,11.6340404 L29.3383459,12.1367273 L20.4360902,0.0722424242 C20.1774436,-0.273919192 19.762406,-0.436464646 19.3503759,-0.361212121 C18.9323308,-0.285959596 18.6015038,0.0210707071 18.4842105,0.421414141 L18.4842105,0.421414141 L14.3278195,14.839798 L0.105263158,19.5837172 C-0.291729323,19.7131515 -0.583458647,20.0653333 -0.637593985,20.4837374 C-0.697744361,20.8991313 -0.508270677,21.3175354 -0.165413534,21.5523232 L12.2466165,29.9595354 L12.3729323,44.9558586 C12.3609023,45.2598788 12.487218,45.5458384 12.6947368,45.7565455 L12.6947368,45.7565455 L12.6947368,45.7565455 Z M38.7879699,38.3486869 L26.0902256,34.3271919 C25.7353383,34.2158182 25.356391,34.2850505 25.0676692,34.5108081 L14.5533835,42.7103232 L14.4541353,29.3665455 C14.4451128,28.996303 14.2706767,28.6621818 13.9639098,28.4544848 L2.92932331,20.980404 L15.5729323,16.7572323 C15.912782,16.6458586 16.1834586,16.3629091 16.2887218,16.0227677 L19.9819549,3.20274747 L27.9007519,13.9307475 C28.1082707,14.2287475 28.4631579,14.394303 28.8240602,14.3762424 L42.1503759,13.9367677 L34.3969925,24.7851717 C34.1864662,25.092202 34.1353383,25.4684646 34.2556391,25.8116162 L38.7879699,38.3486869 L38.7879699,38.3486869 Z" id="path163"></path>
                            </g>
                        </g>
                    </g>
                    <g id="g165" transform="translate(24.227489, 1.150220)">
                        <g id="g167">
                            <g id="g169">
                                <path d="M10.4541353,46.7227879 L110.986466,151.946889 L119.711278,155.556 L130.147368,145.375838 L131.299248,131.541414 L49.7654135,0.108363636 L32.8421053,10.4992323 L13.0345865,2.80541414 L16.7007519,22.7051919 L2.32180451,38.7971919 L10.4541353,46.7227879 L10.4541353,46.7227879 Z" id="polygon171" fill="#F3DF49"></path>
                                <path d="M119.849624,156.290465 L130.748872,145.667818 L131.945865,131.390909 L131.831579,131.216323 L49.9669173,-0.746505051 L32.7789474,9.80991919 L12.2195489,1.82412121 L16.0360902,22.5215758 L1.46466165,38.8272929 L10.0210526,47.1652727 L110.625564,152.473657 L119.849624,156.290465 L119.849624,156.290465 Z M129.548872,145.101919 L119.56391,154.821535 L111.353383,151.426141 L10.9022556,46.2923434 L3.18796992,38.7670909 L17.3744361,22.8888081 L13.8526316,3.78369697 L32.9112782,11.1855354 L49.5669173,0.960222222 L130.673684,131.697939 L129.548872,145.101919 L129.548872,145.101919 Z" id="path173" fill="#FFFFFF"></path>
                            </g>
                        </g>
                        <path d="M131.990977,130.397576 L130.01203,143.611919 L63.843609,38.0145657 L46.6255639,22.9610505 L51.5037594,1.10169697" id="polyline175" fill="#F6CC1E"></path>
                        <path d="M33.524812,59.9401414 L42.0240602,41.9307071 L125.24812,148.388949 L121.762406,154.601798 L33.524812,59.9401414 L33.524812,59.9401414 Z" id="polygon177" fill="#F6CC1E"></path>
                        <g id="g179">
                            <g id="g181" transform="translate(39.097744, 39.131313)" fill="#2E2E2C">
                                <g id="g183">
                                    <path d="M88.4571429,109.937919 L86.0240602,111.813212 L1.37443609,1.76692929 L3.81353383,-0.108363636 L88.4571429,109.937919 L88.4571429,109.937919 Z" id="polygon185"></path>
                                </g>
                            </g>
                            <g id="g187" transform="translate(63.157895, 36.121212)" fill="#2E2E2C">
                                <g id="g189">
                                    <path d="M68.2766917,108.983717 L65.6451128,110.591111 L-1.17894737,1.39066667 L1.45263158,-0.219737374 L68.2766917,108.983717 L68.2766917,108.983717 Z" id="polygon191"></path>
                                </g>
                            </g>
                            <g id="g193" transform="translate(33.082707, 57.191919)" fill="#2E2E2C">
                                <g id="g195">
                                    <path d="M88.6796992,97.4098788 L86.4030075,99.4868485 L-1.0556391,3.32315152 L1.21503759,1.25220202 L88.6796992,97.4098788 L88.6796992,97.4098788 Z" id="polygon197"></path>
                                </g>
                            </g>
                            <g id="g199" transform="translate(48.120301, 0.000000)">
                                <g id="g201" transform="translate(3.007519, 0.000000)" fill="#E2001A">
                                    <path d="M0.37593985,1.10169697 L78.7488421,129.882818" id="line203"></path>
                                </g>
                                <g id="g205" fill="#2E2E2C">
                                    <path d="M83.8706767,130.397576 L81.2451128,132.00497 L1.27218045,0.589979798 L3.89774436,-1.01139394 L83.8706767,130.397576 L83.8706767,130.397576 Z" id="polygon207"></path>
                                </g>
                            </g>
                            <g id="g209" transform="translate(0.000000, 36.121212)" fill="#2E2E2C">
                                <g id="g211">
                                    <path d="M0.15037594,2.63383838 L2.36691729,0.499676768 L3.43157895,1.61040404 L111.873684,114.537354 L119.362406,117.622707 L128.640602,108.589394 L129.233083,92.9549293 L132.300752,93.0632929 L131.663158,109.931899 L120.051128,121.237838 L110.099248,117.129051 L109.879699,116.897273 L0.15037594,2.63383838 L0.15037594,2.63383838 Z" id="polygon213"></path>
                                </g>
                            </g>
                            <g id="g215" fill="#2E2E2C">
                                <g id="g217">
                                    <path d="M33.7804511,61.3398384 C33.6270677,61.3970303 33.4646617,61.4331515 33.2902256,61.4361616 C32.7067669,61.4512121 32.1684211,61.1351515 31.8857143,60.6174141 L22.1443609,42.1925859 L1.46466165,39.7814949 C0.884210526,39.7152727 0.393984962,39.3209495 0.189473684,38.770101 C-0.00601503759,38.2162424 0.126315789,37.6021818 0.532330827,37.1837778 L15.0255639,22.2115354 L10.9293233,1.7789697 C10.8180451,1.2040404 11.043609,0.617070707 11.5007519,0.252848485 C11.9639098,-0.102343434 12.5834586,-0.165555556 13.1067669,0.0933131313 L31.8135338,9.26810101 L49.9639098,-0.948181818 C50.4902256,-1.24317172 51.1037594,-1.21006061 51.593985,-0.881959596 C52.0691729,-0.544828283 52.3308271,0.0270909091 52.2406015,0.611050505 L52.2406015,0.611050505 L49.2992481,21.2452929 L64.6255639,35.3656768 C65.0586466,35.7630101 65.2210526,36.3680404 65.0586466,36.9339394 C64.8902256,37.4938182 64.4270677,37.9152323 63.8406015,38.0145657 L43.3293233,41.5935758 L34.6406015,60.5361414 C34.475188,60.9154141 34.1533835,61.2043838 33.7804511,61.3398384 L33.7804511,61.3398384 L33.7804511,61.3398384 Z M4.91729323,37.0814343 L23.3052632,39.2246263 C23.8135338,39.2848283 24.2526316,39.5918586 24.4962406,40.0403636 L33.1488722,56.4183232 L40.875188,39.573798 C41.0857143,39.1102424 41.4977444,38.7821414 42.0120301,38.6978586 L60.2496241,35.5131717 L46.6255639,22.9580404 C46.2556391,22.6118788 46.0721805,22.1091919 46.1503759,21.6095152 L48.7578947,3.25993939 L32.6255639,12.3414141 C32.1864662,12.5882424 31.6481203,12.6032929 31.1879699,12.3805455 L14.5593985,4.22618182 L18.2075188,22.3951515 C18.3067669,22.8978384 18.156391,23.4065455 17.8045113,23.7707677 L4.91729323,37.0814343 L4.91729323,37.0814343 Z" id="path219"></path>
                                </g>
                            </g>
                        </g>
                    </g>
                    <g id="g221" transform="translate(9.189895, 70.382543)">
                        <g id="g223" transform="translate(0.000000, 3.010101)">
                            <g id="g225">
                                <path d="M9.69022556,44.2846061 L110.108271,115.154424 L117.918797,116.722687 L124.920301,106.587677 L123.639098,94.9355758 L34.7037594,-0.752525253 L22.3669173,10.6196364 L4.70075188,7.4590303 L10.9654135,23.3613939 L1.66616541,39.038 L9.69022556,44.2846061 L9.69022556,44.2846061 Z" id="polygon227" fill="#F3DF49"></path>
                                <path d="M118.150376,117.306646 L125.467669,106.723131 L124.141353,94.7007879 L124.02406,94.5773737 L34.7368421,-1.4930101 L22.2105263,10.0507273 L3.87368421,6.77573737 L10.3909774,23.3072121 L0.956390977,39.2005455 L9.41052632,44.7180606 L109.897744,115.648081 L118.150376,117.306646 L118.150376,117.306646 Z M124.381955,106.455232 L117.678195,116.141737 L110.321805,114.660768 L9.99097744,43.8511515 L2.37293233,38.8724444 L11.5518797,23.4035354 L5.53684211,8.13931313 L22.5293233,11.1825253 L34.6827068,-0.00602020202 L123.136842,95.1673535 L124.381955,106.455232 L124.381955,106.455232 Z" id="path229" fill="#FFFFFF"></path>
                            </g>
                        </g>
                        <path d="M124.009023,96.8831111 L124.514286,108.158949 L52.5383459,31.3893333 L35.8195489,21.7118586 L36.3037594,2.80240404" id="polyline231" fill="#F6CC1E"></path>
                        <path d="M30.962406,54.4978788 L35.0887218,38.1891515 L121.350376,112.896848 L119.470677,118.61303 L30.962406,54.4978788 L30.962406,54.4978788 Z" id="polygon233" fill="#F6CC1E"></path>
                        <g id="g235">
                            <g id="g237" transform="translate(33.082707, 36.121212)" fill="#2E2E2C">
                                <g id="g239">
                                    <path d="M90.2887218,76.9562424 L88.5714286,78.909798 L0.535338346,1.46290909 L2.2556391,-0.490646465 L90.2887218,76.9562424 L90.2887218,76.9562424 Z" id="polygon241"></path>
                                </g>
                            </g>
                            <g id="g243" transform="translate(51.127820, 30.101010)" fill="#2E2E2C">
                                <g id="g245">
                                    <path d="M74.806015,79.0633131 L72.8932331,80.8212121 L-0.228571429,1.17092929 L1.69924812,-0.583959596 L74.806015,79.0633131 L74.806015,79.0633131 Z" id="polygon247"></path>
                                </g>
                            </g>
                            <g id="g249" transform="translate(30.075188, 54.181818)" fill="#2E2E2C">
                                <g id="g251">
                                    <path d="M89.3954887,64.4312121 L87.8406015,66.514202 L-0.258646617,1.03246465 L1.27819549,-1.05955556 L89.3954887,64.4312121 L89.3954887,64.4312121 Z" id="polygon253"></path>
                                </g>
                            </g>
                            <g id="g255" transform="translate(33.082707, 0.000000)">
                                <g id="g257" transform="translate(3.007519, 3.010101)" fill="#E2001A">
                                    <path d="M0.213533835,-0.20769697 L86.0932632,93.7947475" id="line259"></path>
                                </g>
                                <g id="g261" fill="#2E2E2C">
                                    <path d="M90.9263158,96.8831111 L89.0135338,98.6410101 L1.38947368,2.71812121 L3.3112782,0.966242424 L90.9263158,96.8831111 L90.9263158,96.8831111 Z" id="polygon263"></path>
                                </g>
                            </g>
                            <g id="g265" transform="translate(0.000000, 39.131313)" fill="#2E2E2C">
                                <g id="g267">
                                    <path d="M-0.138345865,3.23585859 L1.35037594,1.10169697 L2.40902256,1.85121212 L110.622556,77.8171313 L117.338346,79.1566263 L123.560902,70.1624444 L121.512782,57.1046263 L124.087218,56.6922424 L126.288722,70.7855354 L118.496241,82.0433131 L109.590977,80.2553131 L109.365414,80.0987879 L-0.138345865,3.23585859 L-0.138345865,3.23585859 Z" id="polygon269"></path>
                                </g>
                            </g>
                            <g id="g271" fill="#2E2E2C">
                                <g id="g273">
                                    <path d="M31.4015038,55.6176364 C31.287218,55.6838586 31.1518797,55.7440606 31.0105263,55.7771717 C30.5233083,55.8855354 30.0270677,55.7109495 29.7112782,55.3256566 L18.6406015,41.6417374 L1.10676692,43.002303 C0.616541353,43.0414343 0.144360902,42.7976162 -0.102255639,42.3671717 C-0.363909774,41.9457576 -0.354887218,41.4159798 -0.0781954887,40.9945657 L9.5037594,26.2330303 L2.79699248,9.96343434 C2.60150376,9.50589899 2.6887218,8.97913131 3.01052632,8.60888889 C3.33834586,8.23563636 3.84661654,8.07911111 4.32781955,8.20854545 L21.3172932,12.7748687 L34.7037594,1.35454545 C35.0887218,1.02644444 35.6120301,0.948181818 36.0601504,1.14684848 C36.5142857,1.34551515 36.8210526,1.7789697 36.8481203,2.27563636 L36.8481203,2.27563636 L37.7593985,19.8546263 L52.7518797,29.0655354 C53.1759398,29.3274141 53.4105263,29.8030101 53.3593985,30.2996768 C53.3172932,30.7873131 52.9954887,31.2147475 52.5383459,31.3923434 L36.1112782,37.6954949 L31.9879699,54.8109293 C31.9097744,55.1480606 31.6962406,55.4400404 31.4015038,55.6176364 L31.4015038,55.6176364 L31.4015038,55.6176364 Z M3.53684211,40.2029091 L19.1308271,38.9898384 C19.5578947,38.9597374 19.9789474,39.1373333 20.2406015,39.4684444 L30.0781955,51.6382828 L33.7503759,36.4192121 C33.843609,36.0008081 34.1443609,35.6636768 34.5473684,35.5131717 L49.1488722,29.9053535 L35.8195489,21.7148687 C35.4496241,21.4921212 35.2270677,21.097798 35.2,20.6763838 L34.3879699,5.04191919 L22.4842105,15.198 C22.1654135,15.4689091 21.7112782,15.5742626 21.3022556,15.4628889 L6.1924812,11.4022626 L12.162406,25.8718182 C12.3338346,26.2721616 12.2827068,26.7146465 12.0571429,27.0728485 L3.53684211,40.2029091 L3.53684211,40.2029091 Z" id="path275"></path>
                                </g>
                            </g>
                        </g>
                    </g>
                    <g id="g277" transform="translate(0.167338, 130.584563)">
                        <g id="g279" transform="translate(0.000000, 3.010101)">
                            <g id="g281">
                                <path d="M12.9744361,41.72 L109.993985,81.1071717 L116.769925,80.8964646 L120.631579,71.131697 L117.320301,61.7070707 L25.043609,-0.490646465 L16.9924812,11.3300202 L1.72932331,12.1246869 L9.99398496,24.1139192 L5.30827068,38.9206061 L12.9744361,41.72 L12.9744361,41.72 Z" id="polygon283" fill="#F3DF49"></path>
                                <path d="M117.088722,81.3359394 L121.112782,71.1407273 L117.690226,61.4211111 L117.569925,61.3338182 L24.9172932,-1.11373737 L16.7488722,10.8935556 L0.902255639,11.7243434 L9.49473684,24.1771313 L4.73984962,39.1854949 L12.8240602,42.1323838 L109.903759,81.5496566 L117.088722,81.3359394 L117.088722,81.3359394 Z M120.153383,71.1256768 L116.46015,80.4630101 L110.07218,80.6526465 L13.1398496,41.3076162 L5.85864662,38.6436768 L10.4842105,24.0326465 L2.54736842,12.5340606 L17.2360902,11.7664848 L25.1578947,0.129434343 L116.941353,61.9960404 L120.153383,71.1256768 L120.153383,71.1256768 Z" id="path285" fill="#FFFFFF"></path>
                            </g>
                        </g>
                        <path d="M117.419549,63.7659798 L120.030075,73.0310707 L45.4616541,23.2470101 L29.7203008,18.4489091 L26.475188,2.66393939" id="polyline287" fill="#F6CC1E"></path>
                        <path d="M32.0180451,46.5963636 L32.2917293,32.2652727 L118.306767,77.570303 L117.849624,82.6784444 L32.0180451,46.5963636 L32.0180451,46.5963636 Z" id="polygon289" fill="#F6CC1E"></path>
                        <g id="g291">
                            <g id="g293" transform="translate(30.075188, 30.101010)" fill="#2E2E2C">
                                <g id="g295">
                                    <path d="M89.9398496,47.2254747 L88.8932331,49.1850505 L0.887218045,1.94151515 L1.93684211,-0.012040404 L89.9398496,47.2254747 L89.9398496,47.2254747 Z" id="polygon297"></path>
                                </g>
                            </g>
                            <g id="g299" transform="translate(45.112782, 21.070707)" fill="#2E2E2C">
                                <g id="g301">
                                    <path d="M76.2796992,52.5112121 L75.0255639,54.3503838 L-1.02556391,2.3930303 L0.22556391,0.56589899 L76.2796992,52.5112121 L76.2796992,52.5112121 Z" id="polygon303"></path>
                                </g>
                            </g>
                            <g id="g305" transform="translate(30.075188, 45.151515)" fill="#2E2E2C">
                                <g id="g307">
                                    <path d="M87.7744361,37.5269293 L86.8842105,39.5587475 L1.13082707,2.26359596 L2.00902256,0.228767677 L87.7744361,37.5269293 L87.7744361,37.5269293 Z" id="polygon309"></path>
                                </g>
                            </g>
                            <g id="g311" transform="translate(24.060150, 0.000000)">
                                <g id="g313" transform="translate(3.007519, 3.010101)" fill="#E2001A">
                                    <path d="M-0.592511278,-0.346131515 L88.8180752,61.0478887" id="line315"></path>
                                </g>
                                <g id="g317" fill="#2E2E2C">
                                    <path d="M93.3593985,63.7659798 L92.1142857,65.5931111 L0.87518797,2.94387879 L2.13233083,1.11975758 L93.3593985,63.7659798 L93.3593985,63.7659798 Z" id="polygon319"></path>
                                </g>
                            </g>
                            <g id="g321" transform="translate(3.007519, 39.131313)" fill="#2E2E2C">
                                <g id="g323">
                                    <path d="M0.857142857,3.41646465 L1.68421053,1.35153535 L2.70977444,1.76692929 L107.178947,43.8752323 L113.010526,43.6946263 L116.433083,35.0225253 L112.219549,24.5834949 L114.270677,23.7436768 L118.81203,35.0134949 L114.529323,45.8558788 L106.78797,46.0966869 L106.574436,46.0154141 L0.857142857,3.41646465 L0.857142857,3.41646465 Z" id="polygon325"></path>
                                </g>
                            </g>
                            <g id="g327" fill="#2E2E2C">
                                <g id="g329">
                                    <path d="M32.6045113,47.4452121 C32.5203008,47.5144444 32.4180451,47.5866869 32.3007519,47.6438788 C31.918797,47.8305051 31.4796992,47.7793333 31.1398496,47.5204646 L19.3112782,38.3035354 L5.02556391,42.8307273 C4.61654135,42.9601616 4.18947368,42.8427677 3.89172932,42.5327273 C3.59699248,42.2377374 3.5037594,41.7952525 3.65413534,41.3888889 L8.75488722,27.2895758 L0.045112782,15.0836162 C-0.204511278,14.7374545 -0.237593985,14.2919596 -0.0360902256,13.9217172 C0.162406015,13.5454545 0.553383459,13.3136768 0.983458647,13.3287273 L15.9578947,13.8344242 L24.8661654,1.76692929 C25.118797,1.42076768 25.5338346,1.25822222 25.9458647,1.32745455 C26.3699248,1.40571717 26.7007519,1.70672727 26.8180451,2.11309091 L26.8180451,2.11309091 L30.9684211,16.5284646 L45.193985,21.2693737 C45.5849624,21.4048283 45.8827068,21.7570101 45.9368421,22.1784242 C45.9909774,22.587798 45.8045113,23.006202 45.4616541,23.244 L33.0406015,31.6512121 L32.9233083,46.6505455 C32.9353383,46.9575758 32.8090226,47.2314949 32.6045113,47.4452121 L32.6045113,47.4452121 L32.6045113,47.4452121 Z M6.50526316,40.0403636 L19.206015,36.0128485 C19.5548872,35.9044848 19.9398496,35.967697 20.2255639,36.1994747 L30.7368421,44.3929697 L30.8421053,31.052202 C30.8511278,30.6819596 31.0225564,30.3448283 31.3233083,30.1461616 L42.3639098,22.6690707 L29.7203008,18.4489091 C29.3744361,18.3315152 29.1037594,18.0515758 29.0045113,17.7114343 L25.3142857,4.89141414 L17.3924812,15.6194141 C17.1879699,15.9053737 16.8330827,16.0799596 16.4691729,16.061899 L3.14285714,15.6224242 L10.8932331,26.4648081 C11.1037594,26.7688283 11.1578947,27.1420808 11.0406015,27.4882424 L6.50526316,40.0403636 L6.50526316,40.0403636 Z" id="path331"></path>
                                </g>
                            </g>
                        </g>
                    </g>
                    <g id="g333" transform="translate(57.310195, 124.564361)">
                        <g id="g335" transform="translate(3.007519, 3.010101)" fill="#FFFFFF">
                            <path d="M25.0285714,-0.0240808081 C25.0285714,-0.0240808081 13.2992481,0.788646465 11.0646617,12.3293737 C11.0646617,12.3293737 10.4571429,19.011798 12.2796992,26.7056162 C12.2796992,26.7056162 18.7518797,52.2192323 11.4676692,68.8229495 C11.4676692,68.8229495 1.34736842,90.0832929 0.541353383,94.9476162 C0.541353383,94.9476162 -3.30225564,115.801596 0.336842105,131.192242 C0.336842105,131.192242 8.03007519,157.518586 13.6902256,166.226808 C13.6902256,166.226808 25.2270677,169.26701 35.1428571,166.028141 C35.1428571,166.028141 47.0796992,146.585899 49.5037594,128.967778 C49.5037594,128.967778 52.5383459,110.341273 49.3052632,96.9734141 C49.3052632,96.9734141 42.4210526,79.3552929 35.7443609,62.549899 C35.7443609,62.549899 33.518797,52.4269293 35.3413534,39.0590707 C35.3413534,39.0590707 40.1954887,18.6054343 37.5699248,8.88882828 C37.5759398,8.88581818 33.5218045,0.580949495 25.0285714,-0.0240808081 L25.0285714,-0.0240808081 L25.0285714,-0.0240808081 Z" id="path337"></path>
                        </g>
                        <g id="g339" fill="#2E2E2C">
                            <g id="g341">
                                <path d="M26.2225564,0.586969697 C3.56691729,2.53149495 14.6887218,30.9588889 15.6270677,44.8113737 C16.4150376,56.4845455 13.8706767,66.2192121 9.11578947,76.6251313 C5.86165414,83.7500404 2.06315789,91.0465253 0.920300752,98.8727879 C-0.70075188,109.980061 -1.7112782,122.607434 1.54887218,133.50701 C4.42706767,143.145354 7.6,152.771657 11.6541353,161.985576 C13.0255639,165.107051 14.7007519,169.351293 17.7022556,171.292808 C21.2300752,173.565434 28.0421053,172.984485 31.9398496,172.858061 C37.3082707,172.686485 39.7172932,172.352364 42.1172932,168.047919 C45.1819549,162.533414 47.8075188,156.784121 50.0992481,150.911414 C55.3443609,137.486364 57.3894737,121.445535 55.3864662,107.141535 C54.5323308,101.01598 52.0661654,95.6760606 49.8105263,89.9267677 C46.6075188,81.7693939 41.524812,72.8805657 40.3578947,64.1633131 C38.4210526,49.6787071 43.1458647,36.3650303 43.5157895,22.0429697 C43.7864662,11.6551111 37.0796992,2.03783838 26.2225564,0.586969697 C25.6240602,0.50569697 28.1413534,5.15329293 29.8466165,5.38206061 C41.2300752,6.89915152 39.593985,16.8294747 38.6766917,25.5467273 C38,31.9431919 36.2947368,38.1500202 35.7142857,44.5494949 C35.1789474,50.4101616 34.5894737,58.6367677 36.8511278,64.3138182 C41.0285714,74.8551919 45.1759398,85.3965657 49.3052632,95.956 C54.7308271,109.796444 51.6511278,129.232667 47.0977444,143.106222 C44.475188,151.09202 40.718797,158.809919 36.487218,166.058242 C34.9293233,168.710141 27.2180451,168.132202 24.5142857,168.105111 C21.3112782,168.06598 18.0090226,167.623495 14.9022556,166.834848 C16.0390977,167.858283 17.1789474,168.884727 18.318797,169.908162 C13.8616541,162.729071 11.3413534,154.204465 8.70075188,146.242747 C6.56240602,139.783071 4.73984962,133.826081 4.16240602,126.996162 C3.43759398,118.327071 4.20150376,109.405131 5.58496241,100.835374 C6.61954887,94.4509495 10.0962406,88.2441212 12.7308271,82.4045253 C15.2090226,76.914101 17.8105263,71.8330505 19.0766917,65.8730505 C21.0466165,56.6320404 20.1293233,46.7468687 18.6285714,37.4998384 C17.5488722,30.8445051 15.8195489,24.4630909 16.2285714,17.6241414 C16.6255639,10.9507475 23.6601504,5.90581818 29.8556391,5.37905051 C30.8150376,5.29777778 27.8045113,0.448505051 26.2225564,0.586969697 L26.2225564,0.586969697 L26.2225564,0.586969697 Z" id="path343"></path>
                            </g>
                        </g>
                    </g>
                    <g id="g345" transform="translate(75.355308, 169.715876)" fill="#2E2E2C">
                        <path d="M19.7744361,1.42979798 C10.6646617,-0.012040404 4.13834586,0.165555556 -0.363909774,0.848848485 L0.0661654135,11.0681414 C6.94736842,9.27412121 13.9819549,9.69252525 19.6330827,10.6858586 C19.3413534,8.03094949 19.518797,4.37367677 19.7744361,1.42979798 L19.7744361,1.42979798 L19.7744361,1.42979798 Z" id="path347"></path>
                    </g>
                    <g id="g349" transform="translate(72.347789, 184.766381)" fill="#2E2E2C">
                        <path d="M23.1879699,-0.159535354 C13.0917293,-1.71876768 6.18646617,-1.28832323 1.73533835,-0.400343434 L-0.706766917,11.0711515 C8.51729323,7.152 18.7007519,8.08212121 25.8225564,9.62931313 L23.1879699,-0.159535354 L23.1879699,-0.159535354 Z" id="path351"></path>
                    </g>
                    <g id="g353" transform="translate(78.362827, 163.695674)" fill="#FFFFFF">
                        <path d="M3.34135338,35.7389293 L2.24360902,18.1298384 L3.54586466,2.32379798 L0.709774436,0.710383838 L0.315789474,18.1238182 L-0.0992481203,37.1566869 L3.34135338,35.7389293 L3.34135338,35.7389293 Z" id="polygon355"></path>
                    </g>
                    <g id="g357" transform="translate(87.385383, 91.453250)">
                        <g id="g359" transform="translate(3.007519, 3.010101)" fill="#FFFFFF">
                            <path d="M30.5142857,0.216727273 C30.5142857,0.216727273 16.4150376,1.1889899 13.7353383,15.0655556 C13.7353383,15.0655556 13.0075188,23.0934949 15.1909774,32.3465455 C15.1909774,32.3465455 22.9714286,63.0134545 14.2195489,82.964404 C14.2195489,82.964404 2.06015038,108.520162 1.0887218,114.365778 C1.0887218,114.365778 -3.52781955,139.427879 0.839097744,157.93398 C0.839097744,157.93398 10.0842105,189.573152 16.8962406,200.036263 C16.8962406,200.036263 30.7548872,203.687515 42.6736842,199.795455 C42.6736842,199.795455 57.0165414,176.431051 59.9428571,155.25499 C59.9428571,155.25499 63.5909774,132.865859 59.6992481,116.800949 C59.6992481,116.800949 51.4285714,95.6248889 43.4045113,75.424101 C43.4045113,75.424101 40.7278195,63.2542626 42.9203008,47.1893535 C42.9203008,47.1893535 48.7518797,22.6088687 45.5879699,10.9266667 C45.5849624,10.9236566 40.7278195,0.945171717 30.5142857,0.216727273 L30.5142857,0.216727273 L30.5142857,0.216727273 Z" id="path361"></path>
                        </g>
                        <g id="g363" fill="#2E2E2C">
                            <g id="g365">
                                <path d="M31.7082707,0.827777778 C23.7593985,1.49 17.4075188,6.82690909 14.9744361,14.3160404 C12.3729323,22.3349495 15.9609023,31.9823232 17.4075188,40.0283232 C19.7954887,53.3540404 20.4330827,67.7092121 16.2917293,80.7399394 C13.7233083,88.773899 9.19699248,96.3713939 5.93984962,104.146485 C2.81804511,111.635616 1.31428571,118.122384 0.505263158,126.174404 C-0.64962406,137.627838 -1.02857143,150.044505 2.32781955,161.184889 C5.3443609,171.184444 8.67368421,181.126808 12.6075188,190.816323 C14.2646617,194.907051 16.0390977,199.422202 18.7218045,202.986162 C20.887218,205.836727 23.7112782,205.945091 27.0736842,206.435737 C33.124812,207.335758 39.8225564,207.429071 45.7383459,205.710303 C48.7458647,204.834364 49.3203008,202.453374 50.8120301,199.717192 C56.8691729,188.546707 61.8706767,176.578545 64.4781955,164.107697 C66.475188,154.535576 66.9112782,144.415616 66.5443609,134.68396 C66.1533835,124.314162 62.7428571,116.21699 58.9984962,106.702061 C54.6315789,95.5827475 48.5413534,84.4363434 47.5067669,72.4320606 C46.5954887,61.9358384 48.3609023,52.2914747 50.075188,42.0842222 C51.3804511,34.2519394 54.2015038,21.633596 50.0240602,14.2618586 C46.1353383,7.42290909 39.6661654,1.81208081 31.7082707,0.827777778 C31.0947368,0.752525253 33.6330827,5.40915152 35.3263158,5.62286869 C56.7308271,8.26272727 44.5894737,38.9747879 43.2451128,52.8092121 C42.5473684,60.0003434 41.7172932,70.2196364 44.4902256,77.2000606 C49.5398496,89.9177374 54.5533835,102.650465 59.5428571,115.395232 C63.0887218,124.461657 62.6195489,134.99701 62.0240602,144.566121 C61.4676692,153.647596 59.9458647,162.476222 57.1639098,171.151333 C53.9909774,181.039515 49.3984962,190.587556 44.1804511,199.548626 C42.243609,202.859737 33.4827068,202.212566 30.0090226,202.188485 C26.0481203,202.152364 21.9428571,201.622586 18.0962406,200.647313 C19.2240602,201.670747 20.3699248,202.694182 21.5067669,203.720626 C15.9789474,194.87996 12.8902256,184.299455 9.65112782,174.462444 C6.92631579,166.199717 4.80300752,158.653394 4.25864662,149.854869 C3.66616541,139.867354 4.52030075,129.62398 6.20150376,119.768909 C7.50977444,112.153354 11.7924812,104.634121 14.9473684,97.6717576 C18.1293233,90.6371515 21.2902256,84.2406869 22.6466165,76.525798 C24.5473684,65.6623434 23.4676692,54.2510505 21.6210526,43.4598384 C20.2917293,35.6937778 18.2646617,28.1504646 18.9022556,20.1646667 C19.5368421,12.2270303 27.918797,6.23692929 35.3323308,5.61985859 C36.3007519,5.54159596 33.2992481,0.695333333 31.7082707,0.827777778 L31.7082707,0.827777778 L31.7082707,0.827777778 Z" id="path367"></path>
                            </g>
                        </g>
                    </g>
                    <g id="g369" transform="translate(108.438015, 145.635068)" fill="#2E2E2C">
                        <path d="M24.2225564,1.44183838 C13.275188,-0.294989899 5.43157895,-0.0752525253 0.015037594,0.740484848 L0.535338346,13.0307273 C8.80601504,10.8664646 17.2691729,11.3631313 24.0571429,12.5611515 C23.6992481,9.37345455 23.912782,4.98171717 24.2225564,1.44183838 L24.2225564,1.44183838 L24.2225564,1.44183838 Z" id="path371"></path>
                    </g>
                    <g id="g373" transform="translate(105.430496, 160.685573)" fill="#2E2E2C">
                        <path d="M27.7172932,2.57062626 C15.593985,0.704363636 7.28721805,1.21307071 1.93684211,2.27864646 L-0.998496241,16.0739394 C10.0932331,11.3631313 22.3338346,12.4708485 30.8902256,14.3371111 L27.7172932,2.57062626 L27.7172932,2.57062626 Z" id="path375"></path>
                    </g>
                    <g id="g377" transform="translate(111.445534, 139.614866)" fill="#FFFFFF">
                        <path d="M5.07669173,41.4641414 L3.76842105,20.3061414 L5.32631579,1.30939394 L1.91879699,-0.641151515 L1.45864662,20.294101 L0.941353383,43.1708687 L5.07669173,41.4641414 L5.07669173,41.4641414 Z" id="polygon379"></path>
                    </g>
                    <g id="g381" transform="translate(279.866586, 127.574462)">
                        <g id="g383" transform="translate(3.007519, 3.010101)" fill="#FFFFFF">
                            <path d="M26.7398496,-0.219737374 C26.7398496,-0.219737374 15.0105263,0.589979798 12.7789474,12.1367273 C12.7789474,12.1367273 12.1654135,18.8161414 13.9849624,26.5069495 C13.9849624,26.5069495 20.4571429,52.0235758 13.1759398,68.6242828 C13.1759398,68.6242828 3.06466165,89.8876364 2.25263158,94.7549697 C2.25263158,94.7549697 -1.59398496,115.61196 2.04511278,130.993576 C2.04511278,130.993576 9.74135338,157.322929 15.4015038,166.031152 C15.4015038,166.031152 26.9353383,169.074364 36.8481203,165.832485 C36.8481203,165.832485 48.7909774,146.387232 51.2150376,128.772121 C51.2150376,128.772121 54.2496241,110.145616 51.0075188,96.7807677 C51.0075188,96.7807677 44.1293233,79.1596364 37.4556391,62.3512323 C37.4556391,62.3512323 35.2270677,52.2282626 37.0526316,38.8664242 C37.0526316,38.8664242 41.9037594,18.4097778 39.2721805,8.69016162 C39.2781955,8.69317172 35.2300752,0.385292929 26.7398496,-0.219737374 L26.7398496,-0.219737374 L26.7398496,-0.219737374 Z" id="path385"></path>
                        </g>
                        <g id="g387" fill="#2E2E2C">
                            <g id="g389">
                                <path d="M27.9338346,0.394323232 C5.27218045,2.33583838 16.3969925,30.7632323 17.3293233,44.6187273 C18.1323308,56.291899 15.5789474,66.0205455 10.8270677,76.4324848 C7.56390977,83.5634141 3.77443609,90.8538788 2.62857143,98.6831515 C1.0075188,109.787414 -2.66453526e-15,122.414788 3.25112782,133.317374 C6.13233083,142.952707 9.3112782,152.56998 13.3593985,161.798949 C14.7368421,164.914404 16.4090226,169.158646 19.4045113,171.094141 C22.9413534,173.375798 29.7473684,172.791838 33.6451128,172.665414 C39.0075188,172.490828 41.4225564,172.156707 43.8195489,167.852263 C46.8902256,162.337758 49.512782,156.588465 51.8075188,150.721778 C57.0526316,137.293717 59.0977444,121.258909 57.0977444,106.951899 C56.237594,100.820323 53.7714286,95.480404 51.5157895,89.7371313 C48.318797,81.5827677 43.2360902,72.6849091 42.0691729,63.9736768 C40.1263158,49.4830505 44.8481203,36.1753939 45.2270677,21.8503232 C45.4887218,11.4654747 38.7879699,1.84820202 27.9338346,0.394323232 C27.3323308,0.313050505 29.8496241,4.96064646 31.5548872,5.18941414 C42.9383459,6.71252525 41.2992481,16.6308081 40.3789474,25.3450505 C39.7082707,31.7505455 38,37.9573737 37.4225564,44.3538384 C36.887218,50.2175152 36.2947368,58.4471313 38.5533835,64.1271919 C42.7338346,74.6565253 46.8842105,85.2069293 51.0195489,95.7663636 C56.4300752,109.609818 53.356391,129.04002 48.8030075,142.913576 C46.1834586,150.899374 42.4300752,158.623293 38.1924812,165.871616 C36.6406015,168.523515 28.9293233,167.945576 26.2195489,167.912465 C23.0255639,167.879354 19.7142857,167.427838 16.6075188,166.642202 C17.7503759,167.671657 18.887218,168.695091 20.0240602,169.715515 C15.5699248,162.542444 13.0496241,154.011818 10.406015,146.053111 C8.26766917,139.596444 6.45413534,133.636444 5.87669173,126.800505 C5.14586466,118.137434 5.90977444,109.212485 7.29323308,100.642727 C8.33082707,94.2613131 11.8045113,88.0484646 14.4390977,82.217899 C16.9172932,76.7214545 19.524812,71.6434141 20.7849624,65.6894343 C22.7548872,56.4454141 21.8315789,46.5572323 20.3338346,37.3071919 C19.2571429,30.6518586 17.5278195,24.2674343 17.9368421,17.4314949 C18.3368421,10.758101 25.3684211,5.71317172 31.5639098,5.18941414 C32.5233083,5.10212121 29.512782,0.255858586 27.9338346,0.394323232 L27.9338346,0.394323232 L27.9338346,0.394323232 Z" id="path391"></path>
                            </g>
                        </g>
                    </g>
                    <g id="g393" transform="translate(297.911699, 172.725977)" fill="#2E2E2C">
                        <path d="M21.4766917,1.22812121 C12.3729323,-0.213717172 5.84962406,-0.0301010101 1.35037594,0.653191919 L1.77744361,10.8724848 C8.6556391,9.07846465 15.6932331,9.49385859 21.3383459,10.490202 C21.0526316,7.83830303 21.2270677,4.1810303 21.4766917,1.22812121 L21.4766917,1.22812121 L21.4766917,1.22812121 Z" id="path395"></path>
                    </g>
                    <g id="g397" transform="translate(294.904180, 187.776482)" fill="#2E2E2C">
                        <path d="M24.8962406,-0.352181818 C14.7969925,-1.91141414 7.89473684,-1.4809697 3.44360902,-0.592989899 L1.00150376,10.8815152 C10.2195489,6.96537374 20.4090226,7.88646465 27.5278195,9.43666667 L24.8962406,-0.352181818 L24.8962406,-0.352181818 Z" id="path399"></path>
                    </g>
                    <g id="g401" transform="translate(303.926737, 166.705775)" fill="#FFFFFF">
                        <path d="M2.04511278,35.5462828 L0.941353383,17.9371919 L2.2406015,2.13416162 L-0.592481203,0.517737374 L-0.97443609,17.9311717 L-1.40150376,36.9610303 L2.04511278,35.5462828 L2.04511278,35.5462828 Z" id="polygon403"></path>
                    </g>
                    <g id="g405" transform="translate(123.475609, 58.342139)">
                        <g id="g407" transform="translate(0.000000, 3.010101)" fill="#FFFFFF">
                            <path d="M37.8225564,0.114383838 C37.8225564,0.114383838 21.5278195,1.24317172 18.4360902,17.2749697 C18.4360902,17.2749697 17.593985,26.5551111 20.1203008,37.2409697 C20.1203008,37.2409697 29.1157895,72.6788889 18.9984962,95.7422828 C18.9984962,95.7422828 4.94135338,125.274384 3.82255639,132.029051 C3.82255639,132.029051 -1.51879699,160.998263 3.53984962,182.37299 C3.53984962,182.37299 14.2165414,218.936687 22.0902256,231.031273 C22.0902256,231.031273 38.1022556,235.248424 51.8766917,230.751333 C51.8766917,230.751333 68.4511278,203.747717 71.8255639,179.284626 C71.8255639,179.284626 76.0421053,153.403778 71.5428571,134.840485 C71.5428571,134.840485 61.9879699,110.368364 52.712782,87.0250303 C52.712782,87.0250303 49.6300752,72.9648485 52.1533835,54.3955354 C52.1533835,54.3955354 58.8962406,25.9922222 55.2421053,12.4889091 C55.2451128,12.4889091 49.6300752,0.957212121 37.8225564,0.114383838 L37.8225564,0.114383838 L37.8225564,0.114383838 Z" id="path409"></path>
                        </g>
                        <g id="g411" fill="#2E2E2C">
                            <g id="g413">
                                <path d="M36.0150376,0.725434343 C28.7067669,1.31842424 22.0180451,5.62286869 18.4180451,11.9561212 C13.8586466,20.0081414 16.3729323,31.3742828 18.3067669,39.7845051 C20.7969925,50.629899 21.8796992,61.8696162 21.5759398,72.9829091 C21.281203,83.8343232 18.3458647,93.2980808 13.8706767,102.990606 C9.74135338,111.915556 5.43759398,120.933818 2.35488722,130.292222 C-0.207518797,138.082364 -0.288721805,147.184909 -0.670676692,155.26703 C-1.70225564,177.592949 4.89022556,197.58604 13.1278195,218.057737 C15.4646617,223.879273 18.4270677,235.269495 25.512782,236.804646 C31.4827068,238.09899 37.6270677,238.427091 43.7142857,238.056848 C48.3097744,237.785939 53.0135338,237.734768 55.362406,233.647051 C67.1819549,213.07 74.406015,191.147434 75.6180451,167.448909 C76.1864662,156.179091 75.7353383,144.879172 71.6030075,134.331778 C69.1037594,127.941333 66.5984962,121.562929 64.0842105,115.184525 C62.6616541,111.575414 61.2360902,107.963293 59.8075188,104.354182 C58.1924812,100.245394 55.6390977,95.7633535 54.7548872,91.4378384 C52.6015038,80.8573333 52.3308271,68.4918384 54.6556391,57.9655152 C57.0015038,47.3278182 58.7278195,36.2988081 58.4421053,25.3781616 C58.1203008,13.081899 48.4661654,2.20038384 36.0150376,0.725434343 C35.3864662,0.65620202 37.9338346,5.31583838 39.6390977,5.52052525 C64.3097744,8.44333333 51.6661654,41.9668283 49.6992481,57.7126667 C48.7488722,65.3402626 48.8090226,73.1093333 49.518797,80.7549899 C49.7533835,83.3015354 49.8406015,86.3838788 50.8,88.7979798 C56.6315789,103.475232 62.4150376,118.173556 68.1714286,132.889939 C72.4601504,143.831657 71.8165414,156.570404 71.0045113,168.117152 C70.2646617,178.700667 68.3518797,188.947051 64.9684211,199.021859 C61.281203,209.999697 56.1714286,220.628364 50.3097744,230.609859 C48.0992481,234.369475 36.4781955,233.496545 32.5533835,233.358081 C28.4571429,233.216606 24.2526316,232.659737 20.2706767,231.639313 C21.4105263,232.662747 22.5533835,233.683172 23.687218,234.712626 C17.3894737,224.69501 13.8556391,212.672667 10.1654135,201.514222 C7.16090226,192.438768 4.56842105,184.019515 3.81052632,174.411273 C2.85413534,162.385919 3.86766917,150.035475 5.80150376,138.154606 C7.15488722,129.882848 11.5879699,121.821798 14.9804511,114.257414 C18.4120301,106.593697 22.3488722,99.3092525 24.2496241,91.0766263 C27.1819549,78.3860404 26.1293233,64.7743636 24.1864662,52.0115354 C22.7308271,42.4665051 20.1533835,33.3790101 20.5142857,23.5781212 C20.887218,13.8916162 29.8496241,7.06169697 38.724812,5.63490909 C39.0285714,5.58373737 39.3323308,5.55062626 39.6421053,5.52353535 C40.5924812,5.44226263 37.5969925,0.602020202 36.0150376,0.725434343 L36.0150376,0.725434343 L36.0150376,0.725434343 Z" id="path415"></path>
                            </g>
                        </g>
                    </g>
                    <g id="g417" transform="translate(147.535759, 121.554260)" fill="#2E2E2C">
                        <path d="M27.3503759,0.463555556 C14.6977444,-1.54117172 5.63308271,-1.29133333 -0.622556391,-0.346161616 L-0.0240601504,13.8494747 C9.53082707,11.3601212 19.3082707,11.9320404 27.1578947,13.3136768 C26.7548872,9.63533333 26.9984962,4.55428283 27.3503759,0.463555556 L27.3503759,0.463555556 L27.3503759,0.463555556 Z" id="path419"></path>
                    </g>
                    <g id="g421" transform="translate(141.520722, 139.614866)" fill="#2E2E2C">
                        <path d="M33.9308271,1.10470707 C19.912782,-1.06256566 10.3097744,-0.466565657 4.13533835,0.770585859 L0.745864662,16.7090707 C13.5548872,11.2668081 27.7052632,12.5491111 37.5969925,14.7013333 L33.9308271,1.10470707 L33.9308271,1.10470707 Z" id="path423"></path>
                    </g>
                    <g id="g425" transform="translate(150.543278, 112.523957)" fill="#FFFFFF">
                        <path d="M5.69924812,48.7907273 L4.17443609,24.3336566 L5.98195489,2.3809899 L2.0481203,0.129434343 L1.5037594,24.3246263 L0.920300752,50.7593333 L5.69924812,48.7907273 L5.69924812,48.7907273 Z" id="polygon427"></path>
                    </g>
                    <g id="g429" transform="translate(240.768842, 91.453250)">
                        <g id="g431" transform="translate(3.007519, 3.010101)" fill="#FFFFFF">
                            <path d="M31.9578947,0.216727273 C31.9578947,0.216727273 17.8526316,1.1889899 15.1759398,15.0655556 C15.1759398,15.0655556 14.4511278,23.0934949 16.637594,32.3465455 C16.637594,32.3465455 24.4210526,63.0134545 15.6601504,82.964404 C15.6601504,82.964404 3.50075188,108.520162 2.52932331,114.365778 C2.52932331,114.365778 -2.09323308,139.427879 2.27969925,157.93398 C2.27969925,157.93398 11.5308271,189.573152 18.3368421,200.036263 C18.3368421,200.036263 32.2015038,203.687515 44.1203008,199.795455 C44.1203008,199.795455 58.4631579,176.431051 61.3774436,155.25499 C61.3774436,155.25499 65.0345865,132.865859 61.1338346,116.800949 C61.1338346,116.800949 52.8631579,95.6248889 44.8421053,75.424101 C44.8421053,75.424101 42.1654135,63.2542626 44.3578947,47.1893535 C44.3578947,47.1893535 50.1924812,22.6088687 47.0315789,10.9266667 C47.0315789,10.9236566 42.1684211,0.945171717 31.9578947,0.216727273 L31.9578947,0.216727273 L31.9578947,0.216727273 Z" id="path433"></path>
                        </g>
                        <g id="g435" fill="#2E2E2C">
                            <g id="g437">
                                <path d="M33.1548872,0.827777778 C25.2,1.49 18.8541353,6.82690909 16.4180451,14.3160404 C13.8165414,22.3349495 17.4045113,31.9823232 18.8451128,40.0283232 C21.2451128,53.3540404 21.8827068,67.7092121 17.7323308,80.7399394 C15.1729323,88.773899 10.6345865,96.3713939 7.38947368,104.146485 C4.25864662,111.635616 2.75488722,118.122384 1.94887218,126.174404 C0.8,137.627838 0.415037594,150.044505 3.76842105,161.184889 C6.78796992,171.184444 10.1142857,181.120788 14.0511278,190.816323 C15.7112782,194.907051 17.4796992,199.422202 20.1714286,202.986162 C22.3308271,205.836727 25.1578947,205.945091 28.5172932,206.435737 C34.5654135,207.335758 41.2571429,207.429071 47.1759398,205.710303 C50.1894737,204.834364 50.7609023,202.453374 52.2466165,199.717192 C58.3097744,188.546707 63.3142857,176.578545 65.918797,164.107697 C67.9218045,154.535576 68.3518797,144.415616 67.9819549,134.68396 C67.593985,124.314162 64.1774436,116.21699 60.4390977,106.702061 C56.075188,95.5827475 49.9819549,84.4363434 48.9443609,72.4320606 C48.0421053,61.9358384 49.8045113,52.2914747 51.512782,42.0842222 C52.8210526,34.2519394 55.6481203,21.633596 51.4616541,14.2618586 C47.5759398,7.42290909 41.112782,1.81208081 33.1548872,0.827777778 C32.5353383,0.752525253 35.0676692,5.40915152 36.7759398,5.62286869 C58.1774436,8.26272727 46.0360902,38.9747879 44.6887218,52.8092121 C43.9849624,60.0003434 43.1578947,70.2196364 45.924812,77.2000606 C50.9774436,89.9177374 55.9969925,102.650465 60.9804511,115.395232 C64.5293233,124.461657 64.0511278,134.99701 63.4676692,144.566121 C62.9172932,153.647596 61.3924812,162.476222 58.6045113,171.151333 C55.4315789,181.039515 50.8390977,190.587556 45.6180451,199.548626 C43.6902256,202.859737 34.9293233,202.212566 31.4586466,202.188485 C27.4887218,202.152364 23.3894737,201.622586 19.5368421,200.647313 C20.6706767,201.670747 21.8075188,202.694182 22.9503759,203.720626 C17.4225564,194.87996 14.3308271,184.299455 11.0917293,174.462444 C8.36691729,166.199717 6.2406015,158.653394 5.70225564,149.854869 C5.1037594,139.867354 5.96090226,129.62398 7.64511278,119.768909 C8.94135338,112.153354 13.2330827,104.634121 16.3879699,97.6717576 C19.5699248,90.6371515 22.7338346,84.2406869 24.087218,76.525798 C25.9879699,65.6623434 24.9052632,54.2510505 23.0646617,43.4598384 C21.7353383,35.6937778 19.7052632,28.1504646 20.3458647,20.1646667 C20.9834586,12.2270303 29.3533835,6.23692929 36.7789474,5.61985859 C37.7323308,5.54159596 34.7368421,0.695333333 33.1548872,0.827777778 L33.1548872,0.827777778 L33.1548872,0.827777778 Z" id="path439"></path>
                            </g>
                        </g>
                    </g>
                    <g id="g441" transform="translate(261.821474, 145.635068)" fill="#2E2E2C">
                        <path d="M25.6721805,1.44183838 C14.724812,-0.294989899 6.87518797,-0.0752525253 1.46165414,0.740484848 L1.97894737,13.0307273 C10.2466165,10.8664646 18.7097744,11.3631313 25.4947368,12.5611515 C25.1458647,9.37345455 25.3654135,4.98171717 25.6721805,1.44183838 L25.6721805,1.44183838 L25.6721805,1.44183838 Z" id="path443"></path>
                    </g>
                    <g id="g445" transform="translate(258.813955, 160.685573)" fill="#2E2E2C">
                        <path d="M29.1669173,2.57062626 C17.0345865,0.704363636 8.72481203,1.21307071 3.38646617,2.27864646 L0.445112782,16.0739394 C11.5368421,11.3631313 23.7714286,12.4708485 32.3368421,14.3371111 L29.1669173,2.57062626 L29.1669173,2.57062626 Z" id="path447"></path>
                    </g>
                    <g id="g449" transform="translate(267.836511, 139.614866)" fill="#FFFFFF">
                        <path d="M3.52180451,41.4641414 L2.20150376,20.3061414 L3.7593985,1.30939394 L0.360902256,-0.641151515 L-0.111278195,20.294101 L-0.613533835,43.1708687 L3.52180451,41.4641414 L3.52180451,41.4641414 Z" id="polygon451"></path>
                    </g>
                    <g id="g453" transform="translate(201.671098, 61.352240)">
                        <g id="g455" fill="#FFFFFF">
                            <path d="M37.2902256,1.13480808 C37.2902256,1.13480808 21.0015038,2.26359596 17.9007519,18.298404 C17.9007519,18.298404 17.0586466,27.5755354 19.5909774,38.2674141 C19.5909774,38.2674141 28.5864662,73.7023232 18.4691729,96.7687273 C18.4691729,96.7687273 4.41203008,126.297818 3.2962406,133.046465 C3.2962406,133.046465 -2.04511278,162.018687 3.01052632,183.396424 C3.01052632,183.396424 13.6842105,219.960121 21.5578947,232.054707 C21.5578947,232.054707 37.5759398,236.271859 51.3413534,231.774768 C51.3413534,231.774768 67.924812,204.771152 71.3022556,180.30204 C71.3022556,180.30204 75.5097744,154.427212 71.0075188,135.860909 C71.0075188,135.860909 61.4616541,111.388788 52.1864662,88.0514747 C52.1864662,88.0514747 49.0947368,73.9882828 51.6240602,55.4219798 C51.6240602,55.4219798 58.3639098,27.0126465 54.712782,13.5123434 C54.7157895,13.5093333 49.0947368,1.97763636 37.2902256,1.13480808 L37.2902256,1.13480808 L37.2902256,1.13480808 Z" id="path457"></path>
                        </g>
                        <g id="g459" fill="#2E2E2C">
                            <g id="g461">
                                <path d="M35.4827068,-1.26123232 C28.1774436,-0.671252525 21.4887218,3.63620202 17.8887218,9.96644444 C13.3293233,18.0184646 15.843609,29.3876162 17.7744361,37.7948283 C20.2646617,48.6402222 21.356391,59.8799394 21.0496241,70.9932323 C20.7428571,81.8446465 17.8225564,91.308404 13.3413534,100.994909 C9.21503759,109.925879 4.9112782,118.944141 1.83157895,128.302545 C-0.730827068,136.089677 -0.821052632,145.195232 -1.19699248,153.271333 C-2.22857143,175.600263 4.36691729,195.596364 12.5984962,216.071071 C14.9383459,221.886586 17.9037594,233.279818 24.9864662,234.81497 C30.962406,236.106303 37.1007519,236.437414 43.1849624,236.073192 C47.7804511,235.790242 52.4902256,235.748101 54.8360902,231.654364 C66.6496241,211.074303 73.8887218,189.157758 75.0917293,165.453212 C75.6601504,154.183394 75.2090226,142.892505 71.0706767,132.336081 C68.5774436,125.957677 66.075188,119.573253 63.5578947,113.194848 C62.1353383,109.585737 60.7097744,105.970606 59.2781955,102.364505 C57.6631579,98.2557172 55.1067669,93.7706667 54.2315789,89.4481616 C52.075188,78.8676566 51.8045113,66.5021616 54.1323308,55.9788485 C56.4781955,45.3351313 58.2045113,34.3121414 57.9157895,23.3854747 C57.5879699,11.0952323 47.9368421,0.213717172 35.4827068,-1.26123232 C34.8601504,-1.33046465 37.4015038,3.32917172 39.1067669,3.53084848 C63.7834586,6.45365657 51.1338346,39.9831717 49.1729323,55.726 C48.2195489,63.353596 48.2827068,71.1226667 48.9894737,78.7713333 C49.2240602,81.3118586 49.3082707,84.3972121 50.2706767,86.808303 C56.0992481,101.494586 61.8827068,116.186889 67.6360902,130.894242 C71.9218045,141.84198 71.287218,154.580727 70.475188,166.127475 C69.7353383,176.70798 67.8255639,186.948343 64.4421053,197.032182 C60.7548872,208.00701 55.6421053,218.635677 49.7804511,228.620182 C47.5729323,232.379798 35.9458647,231.500848 32.0300752,231.365394 C27.9308271,231.226929 23.7203008,230.66404 19.7443609,229.646626 C20.8781955,230.670061 22.0210526,231.696505 23.1578947,232.719939 C16.8631579,222.696303 13.3263158,210.68299 9.63007519,199.521535 C6.63157895,190.449091 4.03909774,182.026828 3.28421053,172.418586 C2.32781955,160.390222 3.33533835,148.039778 5.26917293,136.158909 C6.62556391,127.890162 11.0586466,119.823091 14.4511278,112.264727 C17.8827068,104.60402 21.8195489,97.3135556 23.7203008,89.0809293 C26.6616541,76.3873333 25.6,62.7756566 23.6571429,50.0188485 C22.1954887,40.467798 19.6180451,31.3863232 19.9819549,21.5794141 C20.3518797,11.889899 29.3082707,5.066 38.1924812,3.63620202 C38.4902256,3.5850303 38.8030075,3.55492929 39.1067669,3.52482828 C40.0601504,3.45258586 37.0676692,-1.38765657 35.4827068,-1.26123232 L35.4827068,-1.26123232 L35.4827068,-1.26123232 Z" id="path463"></path>
                            </g>
                        </g>
                    </g>
                    <g id="g465" transform="translate(225.731248, 121.554260)" fill="#2E2E2C">
                        <path d="M26.8210526,1.4809697 C14.1684211,-0.520747475 5.10676692,-0.264888889 -1.1518797,0.677272727 L-0.553383459,14.8668889 C8.99849624,12.3805455 18.7729323,12.9554747 26.6195489,14.3371111 C26.2195489,10.6557576 26.4691729,5.57771717 26.8210526,1.4809697 L26.8210526,1.4809697 L26.8210526,1.4809697 Z" id="path467"></path>
                    </g>
                    <g id="g469" transform="translate(219.716211, 139.614866)" fill="#2E2E2C">
                        <path d="M33.4045113,2.12513131 C19.3834586,-0.0391313131 9.78345865,0.556868687 3.60902256,1.7940202 L0.213533835,17.7264848 C13.0255639,12.2872323 27.1729323,13.5695354 37.0646617,15.7217576 L33.4045113,2.12513131 L33.4045113,2.12513131 Z" id="path471"></path>
                    </g>
                    <g id="g473" transform="translate(228.738767, 112.523957)" fill="#FFFFFF">
                        <path d="M5.16992481,49.8081414 L3.65413534,25.360101 L5.45263158,3.40141414 L1.51879699,1.14985859 L0.980451128,25.3450505 L0.387969925,51.7827677 L5.16992481,49.8081414 L5.16992481,49.8081414 Z" id="polygon475"></path>
                    </g>
                    <g id="g477" transform="translate(153.550797, 34.261331)">
                        <g id="g479" transform="translate(3.007519, 3.010101)" fill="#FFFFFF">
                            <path d="M39.5428571,-0.195656566 C39.5428571,-0.195656566 21.4045113,1.05353535 17.9639098,18.9064444 C17.9639098,18.9064444 17.0255639,29.2371111 19.8345865,41.1300202 C19.8345865,41.1300202 29.8466165,80.5743838 18.5894737,106.244525 C18.5894737,106.244525 2.94736842,139.111818 1.6962406,146.62503 C1.6962406,146.62503 -4.24661654,178.869232 1.38345865,202.664081 C1.38345865,202.664081 13.2721805,243.357636 22.0270677,256.821818 C22.0270677,256.821818 39.8556391,261.514566 55.1789474,256.508768 C55.1789474,256.508768 73.6390977,226.458929 77.3894737,199.220525 C77.3894737,199.220525 82.0842105,170.425899 77.0766917,149.758545 C77.0766917,149.758545 66.4360902,122.520141 56.1142857,96.5369495 C56.1142857,96.5369495 52.6766917,80.8874343 55.4947368,60.226101 C55.4947368,60.226101 62.9984962,28.6049899 58.9383459,13.5815758 C58.9413534,13.5815758 52.6827068,0.743494949 39.5428571,-0.195656566 L39.5428571,-0.195656566 L39.5428571,-0.195656566 Z" id="path481"></path>
                        </g>
                        <g id="g483" fill="#2E2E2C">
                            <g id="g485">
                                <path d="M40.7428571,0.415393939 C33.9157895,0.963232323 27.3744361,4.57535354 23.1157895,9.85808081 C16.1052632,18.5693131 18.2766917,32.5572525 20.7548872,42.4695152 C25.7473684,62.3813333 28.3578947,88.3043232 19.3383459,107.364283 C12.8150376,121.123455 4.27368421,135.89402 1.97593985,151.09202 C-1.28721805,172.647354 -1.03157895,193.841475 5.57894737,214.632242 C9.04962406,225.57998 12.7969925,236.464505 17.287218,247.03899 C20.087218,253.649172 22.5022556,261.463394 30.1323308,262.929313 C36.6285714,264.184525 43.281203,264.467475 49.8676692,263.958768 C54.2706767,263.615616 59.2781955,263.573475 61.5819549,259.600141 C67.5669173,249.242384 72.6165414,238.309697 76.7097744,227.06998 C80.5142857,216.600848 82.6345865,205.836727 83.7172932,194.792667 C84.3609023,188.221616 84.6135338,181.617455 84.5323308,175.025333 C84.4511278,168.67402 84.5233083,160.447414 82.1684211,154.427212 C78.0270677,143.807576 73.8556391,133.19697 69.681203,122.598404 C66.9654135,115.708283 62.6616541,108.213131 61.1819549,100.994909 C60.1954887,96.1817576 59.8616541,91.2331515 59.6451128,86.3387273 C58.8150376,67.468404 64.9864662,49.5914141 65.3112782,30.7963434 C65.4345865,24.0085657 64.7819549,18.5030909 60.8330827,13.0307273 C55.993985,6.35131313 49.0315789,1.34852525 40.7428571,0.415393939 C40.1112782,0.349171717 42.6646617,5.02084848 44.3639098,5.21048485 C50.9323308,5.9509697 56.3308271,9.20789899 59.7774436,14.8789293 C62.162406,18.8161414 61.0556391,26.7838788 60.8360902,31.2027071 C60.3518797,41.0848687 58.6406015,50.9941212 56.4661654,60.6324646 C53.9308271,71.8511111 54.8360902,84.8758182 56.7067669,96.1727273 C57.5729323,101.365152 60.4240602,106.410081 62.3548872,111.280424 C65.7954887,119.982626 69.2210526,128.696869 72.643609,137.417131 C76.8902256,148.256505 79.6932331,157.05503 80.1654135,168.990081 C80.5774436,179.320747 79.8526316,189.862121 78.2496241,200.072384 C75.8466165,215.432929 70.2406015,229.920545 63.3984962,243.806141 C61.4526316,247.779475 59.3383459,251.683576 57.1218045,255.524465 C54.487218,260.087778 45.0586466,259.362343 40.3368421,259.431576 C34.6526316,259.509838 28.7368421,258.853636 23.2240602,257.435879 C24.3669173,258.459313 25.5037594,259.482747 26.643609,260.509192 C16.7578947,244.835596 11.675188,225.077293 6.5112782,207.392949 C2.33684211,193.149152 3.81654135,176.385899 5.4406015,161.829051 C6.21954887,154.839596 7.46165414,148.807354 10.0390977,142.251354 C13.8255639,132.61903 18.2075188,123.209455 22.5984962,113.83901 C27.2390977,103.938788 28.8661654,93.3582828 29.1007519,82.4767677 C29.3353383,71.4056162 27.9669173,60.2170707 25.7533835,49.3837172 C23.8676692,40.1667879 21.2511278,30.0257576 23.9789474,20.7516364 C26.5293233,12.0795354 35.5759398,5.91484848 44.3699248,5.20747475 C45.3203008,5.13523232 42.3338346,0.294989899 40.7428571,0.415393939 L40.7428571,0.415393939 L40.7428571,0.415393939 Z" id="path487"></path>
                            </g>
                        </g>
                    </g>
                    <g id="g489" transform="translate(180.618466, 103.493654)" fill="#2E2E2C">
                        <path d="M30.6045113,0.972262626 C16.5233083,-1.25521212 6.43609023,-0.972262626 -0.532330827,0.0782626263 L0.147368421,15.8812929 C10.7729323,13.1059798 21.6571429,13.7441212 30.3879699,15.2852929 C29.9338346,11.1855354 30.2165414,5.52955556 30.6045113,0.972262626 L30.6045113,0.972262626 L30.6045113,0.972262626 Z" id="path491"></path>
                    </g>
                    <g id="g493" transform="translate(174.603429, 124.564361)" fill="#2E2E2C">
                        <path d="M37.2511278,0.722424242 C21.6481203,-1.68866667 10.9714286,-1.02343434 4.09323308,0.346161616 L0.315789474,18.0907071 C14.5804511,12.0313737 30.3218045,13.4611717 41.3413534,15.8572121 L37.2511278,0.722424242 L37.2511278,0.722424242 Z" id="path495"></path>
                    </g>
                    <g id="g497" transform="translate(186.633504, 94.463351)" fill="#FFFFFF">
                        <path d="M3.83759398,53.7423434 L2.14736842,26.5250101 L4.15037594,2.0950303 L-0.22556391,-0.415393939 L-0.821052632,26.5159798 L-1.47969925,55.9367071 L3.83759398,53.7423434 L3.83759398,53.7423434 Z" id="polygon499"></path>
                    </g>
                </g>
                <g id="logo" transform="translate(135.338346, 159.535354)">
                    <!--
                    The MIT License (MIT)

                    Copyright (c) 2011 Christopher Williams <chris@iterativedesigns.com>,
                                         Manuel Strehl <boldewyn@gmail.com>

                    Permission is hereby granted, free of charge, to any person obtaining a copy
                    of this software and associated documentation files (the "Software"), to deal
                    in the Software without restriction, including without limitation the rights
                    to use, copy, modify, merge, publish, distribute, sublicense, and/or sell
                    copies of the Software, and to permit persons to whom the Software is
                    furnished to do so, subject to the following conditions:

                    The above copyright notice and this permission notice shall be included in
                    all copies or substantial portions of the Software.

                    THE SOFTWARE IS PROVIDED "AS IS", WITHOUT WARRANTY OF ANY KIND, EXPRESS OR
                    IMPLIED, INCLUDING BUT NOT LIMITED TO THE WARRANTIES OF MERCHANTABILITY,
                    FITNESS FOR A PARTICULAR PURPOSE AND NONINFRINGEMENT. IN NO EVENT SHALL THE
                    AUTHORS OR COPYRIGHT HOLDERS BE LIABLE FOR ANY CLAIM, DAMAGES OR OTHER
                    LIABILITY, WHETHER IN AN ACTION OF CONTRACT, TORT OR OTHERWISE, ARISING FROM,
                    OUT OF OR IN CONNECTION WITH THE SOFTWARE OR THE USE OR OTHER DEALINGS IN
                    THE SOFTWARE.
                    -->
                    <rect id="border" fill="#2E2E2C" x="0" y="0" width="126.315789" height="126.424242"></rect>
                    <rect id="background" fill="#F3DF49" x="3.0075188" y="3.01010101" width="120.300752" height="120.40404"></rect>
                    <path d="M34.6389783,103.628461 L43.8453275,98.0521293 C45.6214346,101.203896 47.2371405,103.870463 51.1125432,103.870463 C54.8273065,103.870463 57.1693519,102.416107 57.1693519,96.7589803 L57.1693519,58.2870225 L68.4745197,58.2870225 L68.4745197,96.9190412 C68.4745197,108.638368 61.610932,113.972697 51.5970878,113.972697 C42.5532881,113.972697 37.3037356,109.284823 34.6389783,103.627505" id="j" fill="#2E2E2C"></path>
                    <path d="M74.6151092,102.416059 L83.820265,97.0817299 C86.2434659,101.042402 89.3927675,103.951927 94.9645543,103.951927 C99.6488842,103.951927 102.635875,101.607919 102.635875,98.3748789 C102.635875,94.4954322 99.5674902,93.121297 94.3990929,90.8589433 L91.5734574,89.645825 C83.4168755,86.1710695 78.006206,81.806662 78.006206,72.5928861 C78.006206,64.1065514 84.4664042,57.6403288 94.560926,57.6403288 C101.747941,57.6403288 106.9161,60.1461184 110.630386,66.6928491 L101.828142,72.3501669 C99.889963,68.8751723 97.7909059,67.5012761 94.560926,67.5012761 C91.2500298,67.5012761 89.1502565,69.6026135 89.1502565,72.3501669 C89.1502565,75.7448917 91.2500298,77.1190269 96.0947606,79.2206029 L98.9208737,80.4327658 C108.530612,84.5549318 113.941282,88.7573672 113.941282,98.2131456 C113.941282,108.397321 105.946772,113.973653 95.2068265,113.973653 C84.7089152,113.973653 77.9255281,108.963029 74.6151092,102.416059" id="s" fill="#2E2E2C"></path>
                </g>
            </g>
        </g>
    </g>
</svg>
